<!-- Created with Inkscape (http://www.inkscape.org/) -->
<svg width="9mm" height="9mm" version="1.1" viewBox="0 0 9 9" xmlns="http://www.w3.org/2000/svg">
 <g transform="matrix(3.1428 0 0 3.1428 -3234 -37.726)" fill="#1a1a1a">
  <path d="m1030.6 14.703c-0.2824 0.02136-0.4936-0.02413-0.7446-0.1604-0.238-0.12922-0.4114-0.30572-0.527-0.53664l-0.039-0.07761 0.4164-0.12336 0.4165-0.12336 0.028 0.03304c0.054 0.06185 0.1757 0.12284 0.2674 0.13374 0.074 0.0088 0.1109 0.0036 0.1914-0.02668 0.054-0.0205 0.119-0.05579 0.1421-0.07807 0.054-0.05243 0.1154-0.16906 0.1224-0.23471l0.01-0.05169 0.4206-0.12458 0.4204-0.12455 0.01 0.06941c0.014 0.10819 0 0.31604-0.021 0.42617-0.076 0.33678-0.2831 0.63185-0.5703 0.81323-0.1386 0.08752-0.3915 0.17492-0.5382 0.186z" stroke-width=".016265"/>
  <path d="m1029.2 13.596c-0.013-0.04233-0.011-0.23125 0-0.33125 0.084-0.60586 0.6008-1.0777 1.2067-1.1016 0.1484-0.0058 0.4051 0.04118 0.5451 0.09991 0.2405 0.10091 0.4639 0.29508 0.5973 0.51921l0.064 0.10815-0.4219 0.12966-0.4219 0.12969-0.034-0.02872c-0.1073-0.09121-0.2241-0.11869-0.3688-0.08685-0.093 0.02046-0.1168 0.03229-0.1812 0.09157-0.043 0.03932-0.09 0.10409-0.1112 0.15395l-0.037 0.08592-0.4177 0.12376c-0.2948 0.08731-0.4193 0.11867-0.4229 0.10652z" stroke-width=".016265"/>
  <circle transform="rotate(-16.501)" cx="984.19" cy="305.56" r=".23282" stroke-width=".26458"/>
 </g>
</svg>
