<!-- Created with Inkscape (http://www.inkscape.org/) -->
<svg width="12.88mm" height="10.25mm" version="1.1" viewBox="0 0 12.88 10.25" xmlns="http://www.w3.org/2000/svg">
 <path d="m9.0228 10.069c-0.0773-0.03773-1.0102-0.77032-2.0732-1.628l-1.9327-1.5594-0.02241-0.20629c-0.01802-0.16592-4.33e-4 -0.23703 0.08987-0.36335l0.11228-0.15706 0.76945-0.09753c0.6023-0.07633 0.76808-0.11012 0.76315-0.15555-0.0035-0.03191-0.07426-0.22324-0.15732-0.42517-0.51642-1.2554-1.5013-2.2053-2.7737-2.6752-0.89119-0.32907-1.7883-0.40633-2.6223-0.22586-0.64669 0.13994-0.68177 0.13951-0.86866-0.01077-0.13484-0.10841-0.16889-0.16637-0.185-0.31482-0.03046-0.2805 0.05028-0.41881 0.41711-0.71456 0.64083-0.51667 1.4561-0.94247 2.2605-1.1806 0.42344-0.12534 1.7078-0.26483 2.1483-0.23331 2.11 0.15096 4.0057 1.3067 5.1024 3.1107 0.34842 0.57312 0.58381 1.1874 0.81896 2.1373l0.03406 0.13763 1.542-0.1396 0.14338 0.1293c0.1623 0.14636 0.20976 0.35728 0.12699 0.56439-0.06042 0.15106-3.0864 3.9073-3.2151 3.991-0.13456 0.0875-0.31974 0.09397-0.47797 0.01673z" fill="#008080" stroke="#000" stroke-width=".23385"/>
</svg>
