<!-- Created with Inkscape (http://www.inkscape.org/) -->
<svg width="25mm" height="25mm" version="1.1" viewBox="0 0 25 25" xmlns="http://www.w3.org/2000/svg">
 <g transform="matrix(.12572 0 0 .12572 -105.11 -15.911)" fill="#fff">
  <path d="m916.7 256.82c-1.2346-1.9205-2.763-4.3405-3.3965-5.3778-0.77929-1.276-2.8989-2.9997-6.5546-5.3301-2.9715-1.8943-5.4028-3.6009-5.4028-3.7924 0-0.19148 17.783-19.84 39.518-43.664l39.518-43.316 19.049-6.3714c10.477-3.5043 19.146-6.2741 19.265-6.1552s-2.6225 8.7251-6.0921 19.125l-6.3082 18.909-43.264 39.478c-23.795 21.713-43.449 39.593-43.676 39.733-0.22661 0.14006-1.4221-1.3167-2.6567-3.2372z"/>
  <path d="m861.63 308.81c-5.6652-1.7233-9.2917-6.4216-9.2684-12.008 0.015-3.6074 1.3633-6.4143 4.3394-9.034 2.2837-2.0102 3.8261-2.6096 8.6331-3.355 0.47531-0.0737 5.4135-5.9269 10.974-13.007l10.11-12.873-17.296-17.319 8.3586-8.3586 14.694 10.374c8.0815 5.7057 15.047 10.778 15.479 11.271 0.43201 0.49353 5.36 7.3732 10.951 15.288l10.166 14.391-8.3411 8.3411-17.48-17.458-3.2988 2.5449c-1.8143 1.3997-7.7355 6.0261-13.158 10.281l-9.8594 7.7359-0.021 2.0906c-0.0278 2.7754-2.2005 7.0236-4.4823 8.764-3.0469 2.324-7.3667 3.2829-10.498 2.3304z"/>
 </g>
</svg>
