<!-- Created with Inkscape (http://www.inkscape.org/) -->
<svg width="40" height="40" version="1.1" viewBox="0 0 10.583 10.583" xmlns="http://www.w3.org/2000/svg">
 <path d="m3.0021 9.699c-0.086568-0.053557-0.58855-0.53608-1.1183-1.0723-1.0304-1.0428-1.092-1.1366-0.97534-1.4899 0.057712-0.17695 0.31511-0.44123 0.42869-0.44123 0.031165 0 0.63483 0.57504 1.3397 1.2779 0.86257 0.86017 1.2812 1.3134 1.2812 1.3865 0 0.11289-0.15167 0.2785-0.34523 0.37864-0.16956 0.087261-0.43642 0.069832-0.61071-0.039475zm0.22092-2.2139c-0.84768-0.84526-1.2814-1.314-1.2814-1.3846 0-0.059559 0.11312-0.2189 0.25832-0.36121 0.23016-0.22665 0.2582-0.27877 0.2582-0.47549 0-0.20282-0.021931-0.22699-0.17845-0.29516-0.34166-0.14302-0.63737-0.7031-0.74772-1.4177-0.15398-0.99413 0.26617-1.9961 0.98734-2.3555 0.37536-0.18699 0.84479-0.18699 1.22 9.23e-5 0.29814 0.14861 0.56835 0.43679 0.61371 0.65432 0.021931 0.078142 0.045016 0.14126 0.060021 0.14014 0.02193-0.00115 0.16067-0.12986 0.31661-0.2861 0.92732-0.92687 2.2441-1.1517 3.4186-0.58372 0.3285 0.15887 0.51029 0.29333 0.81651 0.60279 0.63634 0.64383 0.88184 1.2394 0.88046 2.1373-6.925e-4 0.39686-0.026548 0.55934-0.14728 0.90615-0.20522 0.59236-0.47728 0.94155-1.538 1.9816-0.74079 0.72624-0.99588 0.94311-1.29 1.0969-0.45454 0.23768-0.87296 0.34961-1.3063 0.34961h-0.33335l-0.29791 0.28427c-0.16286 0.15642-0.32781 0.2843-0.36416 0.2843-0.035782 0-0.64257-0.57505-1.3475-1.2779zm4.9104-2.3614c0.46031-0.4996 0.64753-1.1274 0.50337-1.6898-0.15178-0.58781-0.62595-1.1726-0.90031-1.1077-0.34812 0.082067-0.39383 0.41008-0.10273 0.74057 0.21192 0.24165 0.30368 0.47082 0.30368 0.76015 0 0.29477-0.086568 0.50577-0.3285 0.79312-0.22716 0.27069-0.25567 0.52361-0.073872 0.65116 0.20303 0.14215 0.3697 0.10111 0.59871-0.14749z" fill="#2b0000" stroke-width=".051684"/>
</svg>
