<!-- Created with Inkscape (http://www.inkscape.org/) -->
<svg width="22mm" height="18mm" version="1.1" viewBox="0 0 22 18" xmlns="http://www.w3.org/2000/svg">
 <g>
  <g transform="matrix(-1 0 0 1 150.49 -46.199)" fill="#78c3ed" stroke-opacity="0">
   <ellipse cx="141.79" cy="55.192" rx="8.5139" ry="8.4951"/>
   <path transform="matrix(.85994 0 0 1.2857 60.518 -61.61)" d="m87.492 95.515-4.0306-2.3493-4.0498-2.316 4.0498-2.316 4.0306-2.3493-0.01923 4.6652z"/>
  </g>
  <g transform="matrix(1.7021 0 0 1.7021 -146.88 -229.23)" fill="#d0ffff">
   <path d="m91.874 143.95c-0.88753 0.0671-1.5513-0.0758-2.3401-0.5041-0.74799-0.40611-1.2929-0.96082-1.6563-1.6866l-0.12257-0.24392 1.3087-0.38769 1.309-0.3877 0.088 0.10384c0.16971 0.19438 0.55219 0.38606 0.84038 0.42032 0.23257 0.0276 0.34854 0.0113 0.60153-0.0838 0.16971-0.0644 0.37399-0.17534 0.44659-0.24536 0.16971-0.16478 0.36268-0.53132 0.38468-0.73765l0.03143-0.16245 1.3219-0.39153 1.3212-0.39143 0.03143 0.21814c0.044 0.34002 0 0.99325-0.066 1.3394-0.23885 1.0584-0.88973 1.9858-1.7923 2.5558-0.43559 0.27506-1.2304 0.54974-1.6915 0.58456z" stroke-width=".051118"/>
   <path d="m87.474 140.47c-0.04086-0.13303-0.03457-0.72677 0-1.041 0.264-1.9041 1.8882-3.387 3.7924-3.4621 0.46639-0.0182 1.2731 0.12942 1.7131 0.314 0.75584 0.31714 1.4579 0.92738 1.8772 1.6318l0.20114 0.3399-1.3259 0.40749-1.3259 0.40759-0.10686-0.0903c-0.33722-0.28665-0.7043-0.37302-1.1591-0.27295-0.29228 0.0643-0.36708 0.10148-0.56948 0.28778-0.13514 0.12358-0.28285 0.32714-0.34948 0.48384l-0.11628 0.27003-1.3127 0.38895c-0.9265 0.2744-1.3178 0.37296-1.3291 0.33477z" stroke-width=".051118"/>
   <circle transform="rotate(-16.501)" cx="47.869" cy="160.15" r=".73171" stroke-width=".83152"/>
  </g>
 </g>
</svg>
