<!-- Created with Inkscape (http://www.inkscape.org/) -->
<svg width="25mm" height="25mm" version="1.1" viewBox="0 0 25 25" xmlns="http://www.w3.org/2000/svg">
 <g fill="#fff">
  <path d="m3.2141 22.913c-0.71223-0.21665-1.1682-0.80732-1.1652-1.5096 0.00189-0.45352 0.17139-0.8064 0.54555-1.1358 0.28711-0.25272 0.48102-0.32808 1.0854-0.42179 0.059756-0.0093 0.68059-0.74513 1.3797-1.6352l1.271-1.6184-2.1745-2.1773 1.0508-1.0508 1.8473 1.3042c1.016 0.71732 1.8917 1.355 1.946 1.417 0.054312 0.06205 0.67386 0.92696 1.3768 1.922l1.2781 1.8092-1.0486 1.0486-2.1976-2.1948-0.41473 0.31994c-0.22809 0.17597-0.97251 0.7576-1.6542 1.2925l-1.2395 0.97256-0.00264 0.26283c-0.0035 0.34892-0.27665 0.88301-0.56351 1.1018-0.38306 0.29217-0.92614 0.41273-1.3198 0.29298z" stroke-width=".12572"/>
  <rect transform="scale(-1)" x="-20.451" y="-15.058" width="2.0055" height="8.4742" rx=".46364" ry="0" stroke-width=".42716"/>
  <rect transform="rotate(-90)" x="-11.824" y="15.244" width="2.0055" height="8.4071" rx=".46364" ry="0" stroke-width=".42546"/>
  <path transform="scale(.26458)" d="m38.945 62.743c-0.26804-0.36411-0.92711-1.3577-1.4646-2.208-0.61848-0.9784-1.1782-1.7267-1.5247-2.0382-0.30112-0.27073-1.4237-1.0771-2.4946-1.792-2.1803-1.4554-2.3451-1.5819-2.3013-1.7675 0.05506-0.23327 11.291-12.621 34.193-37.699l3.247-3.5554 8.3919-2.7721c9.1742-3.0305 9.6006-3.166 9.6878-3.0788 0.08294 0.082943-0.77718 2.7927-3.4645 10.915l-2.3171 7.0031-1.009 0.92233-0.06116-1.1615c-0.03364-0.63881-0.11994-1.3018-0.19178-1.4733-0.22945-0.54775-0.73817-1.0906-1.3283-1.4175l-0.57356-0.31772-4.0504-0.03172c-3.8928-0.03049-4.0739-0.02291-4.6552 0.19458-0.43528 0.16286-0.74175 0.37857-1.0932 0.76944-0.8084 0.89914-0.81368 0.94106-0.81368 6.4675v4.8288h-4.8981c-4.6788 0-4.9246 0.0099-5.4902 0.22152-0.42172 0.15779-0.73254 0.37777-1.0804 0.76465-0.78714 0.87548-0.81368 1.0529-0.81368 5.4399 0 3.5262 0.01545 3.8425 0.21359 4.3721 0.27246 0.7282 0.86069 1.3362 1.6354 1.6903l0.60998 0.27882-3.0762 2.8012c-11.234 10.229-14.634 13.306-14.707 13.306-0.0456 0-0.30222-0.29791-0.57026-0.66201z" stroke-width=".23007"/>
 </g>
</svg>
