<!-- Created with Inkscape (http://www.inkscape.org/) -->
<svg width="25mm" height="18.1mm" version="1.1" viewBox="0 0 25 18.1" xmlns="http://www.w3.org/2000/svg">
 <path d="m15.631 17.261c-4.1086 0.1432-5.1979 0.12697-6.304-0.09398-0.80819-0.16142-1.994-0.62016-2.6352-1.0193-0.64512-0.40162-1.5246-1.3029-1.9109-1.9583-0.55905-0.94826-0.83001-2.0639-0.78805-3.2448 0.1117-3.1428 2.0571-4.9269 5.2322-4.798 0.30733 0.01254 0.58012 0.0036 0.60612-0.01968 0.026-0.02313 0.0647-0.29448 0.0861-0.60263 0.0768-1.107 0.41592-2.1214 0.98377-2.9428 1.8659-2.6991 6.7801-2.4438 8.8264 0.45857 0.66262 0.94002 1.0461 1.9736 1.2236 3.2984 0.15465 1.1545 0.0274 2.5059-0.63432 6.739-0.33355 2.1337-0.63711 3.917-0.67455 3.9628-0.0427 0.05193-1.5451 0.13472-4.011 0.22068z" fill="#999" stroke="#000" stroke-width="1.403"/>
</svg>
