<!-- Created with Inkscape (http://www.inkscape.org/) -->
<svg width="25mm" height="25mm" version="1.1" viewBox="0 0 25 25" xmlns="http://www.w3.org/2000/svg">
 <g fill="#fff">
  <path d="m12.191 22.801c-1.5491-0.84137-3.1552-2.0513-4.4716-3.3685-2.2623-2.2638-3.6394-4.849-3.8873-7.2979-0.063712-0.62943-0.092614-3.6399-0.054751-5.7029l0.032157-1.7522 4.3539-1.3154c4.2757-1.2918 4.3568-1.3145 4.5152-1.2626 0.08869 0.029045 2.0298 0.61716 4.3136 1.3069 2.2838 0.68976 4.1665 1.2678 4.1838 1.2845 0.01733 0.016735 0.04295 1.0222 0.05694 2.2343 0.02353 2.0381 0.0204 2.2039-0.04158 2.2039-0.0611 0-0.0671-0.11657-0.06791-1.3203-9.79e-4 -1.4787-0.01201-1.5457-0.28913-1.7571-0.21774-0.16608-0.45678-0.19466-1.5109-0.18068-1.0825 0.014359-1.1598 0.032647-1.4019 0.3317l-0.12309 0.15202-0.02318 2.7743-1.3188 8.996e-4c-1.1959 7.937e-4 -1.3338 0.00782-1.48 0.07531-0.19516 0.090072-0.31798 0.2177-0.40122 0.41691-0.05096 0.12195-0.0624 0.34389-0.0624 1.2104 0 1.0204 0.0035 1.068 0.09071 1.2404 0.05299 0.10478 0.16335 0.22984 0.26543 0.30082l0.17473 0.12148 2.7346 0.02414v1.33c0 1.2255 6e-3 1.3417 0.07634 1.4795 0.08732 0.17109 0.17181 0.2535 0.35504 0.34628 0.10685 0.0541 0.27548 0.06533 0.98126 0.06533h0.85224l-0.17071 0.31243c-1.3182 2.4126-3.6478 4.7065-6.5489 6.4486-0.81216 0.4877-0.79182 0.48236-1.1326 0.29726zm0.30618-10.344c0-6.798-0.01155-9.0505-0.0464-9.0505-0.04208 0-4.1458 1.2343-6.4206 1.9311-0.50813 0.15566-0.93871 0.30639-0.95684 0.33497-0.06459 0.1018-0.056277 5.2897 0.00989 6.1704 0.081549 1.0854 0.3563 2.0025 0.9618 3.2104 0.66133 1.3193 1.3598 2.2563 2.6189 3.5133 0.81862 0.81727 1.4194 1.3251 2.3446 1.9819 0.55207 0.3919 1.4038 0.95009 1.4584 0.95577 0.01663 0.0017 0.03023-4.0696 0.03023-9.0473z" stroke-width=".086088"/>
  <rect transform="scale(-1)" x="-20.451" y="-15.058" width="2.0055" height="8.4742" rx=".46364" ry="0" stroke-width=".42716"/>
  <rect transform="rotate(-90)" x="-11.824" y="15.244" width="2.0055" height="8.4071" rx=".46364" ry="0" stroke-width=".42546"/>
 </g>
</svg>
