<!-- Created with Inkscape (http://www.inkscape.org/) -->
<svg width="25mm" height="25mm" version="1.1" viewBox="0 0 25 25" xmlns="http://www.w3.org/2000/svg">
 <path d="m11.913 22.658c-4.2266-2.4597-7.1689-6.0123-7.9512-9.6005-0.1937-0.88845-0.22146-1.5705-0.20516-5.042l0.01566-3.3348 8.7352-2.638 1.2909 0.39127c0.70997 0.2152 2.0235 0.6125 2.919 0.88289 0.89547 0.27039 2.2767 0.6881 3.0694 0.92825l1.4413 0.43663 0.01565 3.3343c0.0099 2.1041-0.0056 3.5597-0.04207 3.9452-0.34262 3.6255-2.9356 7.3236-7.0199 10.012-0.8016 0.52755-1.6015 0.99046-1.7006 0.98423-0.03353-0.0021-0.28917-0.13664-0.56809-0.29896zm0.57415-14.739-0.01364-4.5254-3.6299 1.0965c-1.9965 0.60309-3.672 1.1134-3.7234 1.134-0.08737 0.035-0.09336 0.22348-0.09249 2.9084 9.11e-4 2.8451 0.02925 3.4922 0.18618 4.2519 0.26512 1.2835 1.0318 2.8725 2.0061 4.1575 1.2847 1.6945 2.9281 3.1329 5.1201 4.4815l0.13345 0.08211 0.01365-4.5306c0.0076-2.4918 0.0076-6.567 0-9.0559z" fill="#fff"/>
</svg>
