<!-- Created with Inkscape (http://www.inkscape.org/) -->
<svg width="25mm" height="25mm" version="1.1" viewBox="0 0 25 25" xmlns="http://www.w3.org/2000/svg">
 <g fill="#fff" stroke-width=".14319">
  <path d="m2.4654 18.263c-0.78947-2.6766-0.55962-5.4376 0.65311-7.8452 1.2455-2.4726 3.3387-4.2995 6.0043-5.2404 1.1307-0.3991 1.8-0.50076 3.3272-0.50538 1.4891-0.00452 2.1578 0.089636 3.325 0.46806 0.62911 0.20398 2.3266 1.0159 2.2956 1.0981-0.01189 0.031501-0.77598 0.65125-1.698 1.3772-0.92198 0.72597-1.8065 1.4265-1.9657 1.5568l-0.28934 0.23689-0.5153-0.24936c-1.6187-0.78332-3.9222-0.91366-5.7119-0.3232-1.5638 0.51592-3.1377 1.7169-4.0441 3.0858-1.1762 1.7764-1.603 4.0829-1.1196 6.052 0.14502 0.59078 0.13935 0.7412-0.027928 0.7412-0.065378 0-0.14593-0.15624-0.23334-0.45261z"/>
  <path d="m12.02 17.84c-0.81261-0.13612-1.6713-0.8053-2.0383-1.5885-0.16206-0.34581-0.18077-0.46223-0.18077-1.1248 0-0.69947 0.01177-0.76299 0.21954-1.1849 0.25992-0.52787 0.81295-1.0688 1.34-1.3107 0.36512-0.16757 1.0571-0.29892 1.2748-0.24199 0.08354 0.02185 0.33059-0.12904 0.75009-0.45812 0.34404-0.26988 0.79879-0.62648 1.0106-0.79243 0.21177-0.16596 1.3569-1.0712 2.5448-2.0116 2.67-2.1138 2.5502-2.0299 2.8971-2.0299 0.373 0 0.65812 0.29482 0.65812 0.68052 0 0.32144-0.0027 0.32539-1.7316 2.5432-0.7675 0.98453-1.8703 2.4035-2.4507 3.1533l-1.0553 1.3632-0.03122 0.43175c-0.09437 1.3053-1.0503 2.3661-2.3174 2.5717-0.23462 0.03807-0.45676 0.06589-0.49364 0.06184-0.03688-4e-3 -0.21508-0.03218-0.396-0.06248zm1.1451-1.6267c0.34029-0.17745 0.62553-0.68614 0.62553-1.1155 0-0.32881-0.3234-0.86225-0.63262-1.0435-0.36446-0.21359-0.97014-0.23147-1.2874-0.03801-0.48119 0.29342-0.71132 0.84791-0.59942 1.4444 0.04692 0.25009 0.35607 0.65596 0.60085 0.78884 0.35004 0.19001 0.88817 0.17496 1.2931-0.03618z"/>
  <path d="m21.636 17.593c-0.46099-0.13072-1.4266-0.39291-2.1457-0.58267l-1.3075-0.345-0.04787-0.76348c-0.04344-0.69295-0.20794-1.7217-0.28812-1.8018-0.03461-0.03461 0.12658-0.26286 0.67036-0.9492 0.18993-0.23972 0.86874-1.1148 1.5085-1.9445 1.4487-1.8791 1.3172-1.7353 1.4392-1.5727 0.21032 0.28033 0.77269 1.506 0.9985 2.1762 0.30957 0.9188 0.44169 1.59 0.50767 2.5792 0.06305 0.94524 0.03999 1.5078-0.09761 2.3829-0.13253 0.84281-0.18875 1.0372-0.30344 1.0489-0.05267 0.0054-0.47293-0.09712-0.93392-0.22784z"/>
 </g>
</svg>
