<!-- Created with Inkscape (http://www.inkscape.org/) -->
<svg width="9mm" height="9mm" version="1.1" viewBox="0 0 9 9" xmlns="http://www.w3.org/2000/svg">
 <g transform="matrix(.3635 0 0 .3635 -111.7 -32.232)" fill="#1a1a1a" stroke-width=".52004">
  <path transform="scale(.26458)" d="m1180.9 378.75c0.4583-1.5146 1.868-3.3181 3.0202-3.8638 0.832-0.39408 2.3792-0.50375 3.6703-0.26014 1.7134 0.32329 1.7576 0.46366 0.3923 1.2441-0.9931 0.56768-6.8553 3.2398-7.1075 3.2398-0.046 0-0.035-0.162 0.025-0.35999z"/>
  <path transform="scale(.26458)" d="m1204.3 423.42c-3.4926-0.3873-7.4436-1.2807-10.263-2.3205-2.0742-0.76512-6.0117-2.6952-7.8168-3.8315-3.6417-2.2927-7.8573-6.0299-10.383-9.2043-12.897-16.212-12.17-39.084 1.7224-54.216 6.8332-7.4427 15.773-12.032 25.94-13.317 2.3578-0.29795 7.744-0.25568 10.08 0.0791 5.2391 0.75094 9.2135 1.9896 13.605 4.2402 4.2695 2.1879 7.5724 4.6342 10.957 8.1152 6.4458 6.6298 10.345 14.786 11.54 24.139 0.3326 2.6028 0.2484 8.044-0.1668 10.777-0.9385 6.176-3.1173 11.912-6.3907 16.825-1.87 2.8065-3.222 4.4736-5.3941 6.6514-6.5202 6.5372-14.582 10.526-24.071 11.908-1.5908 0.23182-7.745 0.33314-9.3596 0.15409zm22.324-22.276c0.3919-0.198 0.8751-0.60463 1.0738-0.90363 0.3531-0.5313 0.3613-0.64338 0.3613-4.9385v-4.3948l0.44 0.10011c0.242 0.0551 1.2734 0.14546 2.2921 0.2009 3.2366 0.17615 5.4358-0.56891 7.3574-2.4926 2.3461-2.3487 3.2634-5.376 2.8794-9.5025-0.4989-5.3614-2.7346-8.539-6.5061-9.2472-1.7943-0.33695-4.3744 0.0772-6.1619 0.98913l-0.5812 0.29653-0.09-0.55464c-0.2154-1.327-1.5781-2.2796-2.9639-2.0718-1.018 0.15265-1.9565 1.0943-2.3557 2.3633-0.2712 0.86236-0.276 1.11-0.073 3.7599 0.1356 1.7709 0.2521 6.9845 0.3102 13.876 0.09 10.686 0.1033 11.057 0.4151 11.588 0.3894 0.66281 1.5137 1.2918 2.3091 1.2918 0.3195 0 0.9015-0.16199 1.2935-0.35998zm-38.725-10.207c3.8264-0.39265 6.9552-2.0405 7.5324-3.9669 0.256-0.85456 0.068-1.7303-0.4908-2.2894-0.3871-0.38718-0.5844-0.45591-1.3087-0.45591-0.692 0-1.167 0.14974-2.52 0.79439-0.9169 0.43692-2.0673 0.87746-2.5564 0.97899-1.3267 0.27543-4.0487 0.10931-5.1514-0.31437-0.8343-0.32056-2.244-1.3418-2.0635-1.4949 0.044-0.0373 1.8439-0.845 3.9998-1.7948 4.9202-2.1676 6.4993-2.9895 7.5599-3.9348 1.1588-1.0328 1.6267-2.0136 1.6151-3.3852-0.02-2.4214-1.7-4.1769-4.8025-5.0196-1.4406-0.39129-4.847-0.48121-6.1943-0.1635-4.7445 1.1188-7.9372 5.7635-7.9818 11.612-0.023 3.0036 0.6001 4.7115 2.3639 6.4804 1.6277 1.6324 4.1411 2.706 6.91 2.9517 0.7753 0.0688 1.4201 0.13512 1.4328 0.14739 0.013 0.0123 0.7576-0.0531 1.6555-0.14522zm29.882-0.41753c1.001-0.74146 1.4109-1.939 1.0147-2.9644-0.079-0.20372-1.544-2.0861-3.2562-4.1831l-3.1132-3.8127 1.2163-1.151c0.669-0.63305 2.1227-1.9551 3.2303-2.9379 2.7335-2.4253 3.3459-3.2657 3.3459-4.5916 0-1.2211-1.2492-2.3522-2.6206-2.3729-0.9337-0.0141-1.5106 0.34213-2.574 1.5895-0.5111 0.59948-1.3693 1.4885-1.9072 1.9755-1.4476 1.3109-3.8765 3.3543-3.987 3.3543-0.053 0-0.8121-0.91797-1.6868-2.0399-2.4447-3.1357-4.2207-4.6798-5.3825-4.6798-0.9982 0-1.9424 0.71717-2.4065 1.828-0.4371 1.0461-0.228 1.5587 1.2712 3.1175 1.208 1.2559 4.2539 5.1672 4.2539 5.4624 0 0.1296-3.8355 3.7575-5.9508 5.6288-2.1354 1.889-2.4276 3.2658-0.9832 4.6324 0.8353 0.79037 1.9005 0.98197 2.8188 0.50706 0.2799-0.1447 1.648-1.3147 3.0404-2.5999 3.7023-3.4175 4.4356-4.0709 4.4892-4.0003 0.2598 0.34214 2.7677 3.3535 4.1001 4.9232 2.1336 2.5135 2.5028 2.781 3.7273 2.7002 0.5994-0.0396 1.0753-0.17432 1.3599-0.38517z"/>
  <path transform="scale(.26458)" d="m1230.2 385.89c-0.176-0.0347-0.6979-0.13946-1.1599-0.23291l-0.84-0.16989-0.013-1.3885c-0.01-0.76367-0.068-2.5764-0.1338-4.0284l-0.1207-2.6399 0.4939-0.43952c0.2716-0.24174 1.0893-0.74025 1.8171-1.1078 1.1565-0.58403 1.4625-0.66982 2.4271-0.68044 1.3417-0.0148 1.8214 0.27127 2.4082 1.4361 0.362 0.71867 0.4041 1.0149 0.4566 3.2133 0.046 1.9111 0 2.6136-0.2068 3.3322-0.3408 1.1721-1.267 2.2067-2.2866 2.5541-0.6785 0.23121-2.0628 0.30508-2.8419 0.15166z"/>
 </g>
</svg>
