<?xml version="1.0" encoding="UTF-8" standalone="no"?>
<!-- Created with Inkscape (http://www.inkscape.org/) -->

<svg
   width="40"
   height="40"
   viewBox="0 0 10.583333 10.583333"
   version="1.1"
   id="svg39724"
   inkscape:version="1.2.2 (732a01da63, 2022-12-09)"
   sodipodi:docname="svg.svg"
   xmlns:inkscape="http://www.inkscape.org/namespaces/inkscape"
   xmlns:sodipodi="http://sodipodi.sourceforge.net/DTD/sodipodi-0.dtd"
   xmlns="http://www.w3.org/2000/svg"
   xmlns:svg="http://www.w3.org/2000/svg">
  <sodipodi:namedview
     id="namedview39726"
     pagecolor="#505050"
     bordercolor="#eeeeee"
     borderopacity="1"
     inkscape:showpageshadow="0"
     inkscape:pageopacity="0"
     inkscape:pagecheckerboard="0"
     inkscape:deskcolor="#505050"
     inkscape:document-units="mm"
     showgrid="false"
     inkscape:zoom="12.500449"
     inkscape:cx="26.039065"
     inkscape:cy="20.479265"
     inkscape:window-width="1920"
     inkscape:window-height="1057"
     inkscape:window-x="-8"
     inkscape:window-y="-8"
     inkscape:window-maximized="1"
     inkscape:current-layer="layer1" />
  <defs
     id="defs39721" />
  <g
     inkscape:label="Capa 1"
     inkscape:groupmode="layer"
     id="layer1">
    <g
       id="g19916-9-2-4-5-9-1-46-3"
       transform="matrix(0.55154321,0,0,0.55154321,-203.48102,-9.2027965)"
       style="fill:#2b0000;fill-opacity:1">
      <path
         style="fill:#2b0000;fill-opacity:1;stroke-width:0.0548093"
         d="m 378.29483,34.26325 c -0.15913,-0.08216 -0.63772,-0.344453 -1.06215,-0.582875 -0.42441,-0.2384 -0.98619,-0.553855 -1.24819,-0.700952 -0.26224,-0.147115 -0.82378,-0.46522 -1.24821,-0.706941 -0.4244,-0.241729 -0.94085,-0.529744 -1.14781,-0.640051 -0.33615,-0.179348 -0.38546,-0.227602 -0.46537,-0.45627 -0.0853,-0.243976 -0.0853,-0.285391 -0.0217,-0.902936 0.0357,-0.355977 0.1291,-1.362002 0.20596,-2.235623 0.0774,-0.873613 0.17888,-1.990454 0.2276,-2.481863 0.0479,-0.491409 0.12909,-1.369988 0.18105,-1.952403 0.15291,-1.717689 0.16915,-1.831398 0.29323,-2.012275 l 0.1134,-0.163733 0.48963,0.07805 c 0.40711,0.0649 1.8499,0.318032 3.46268,0.607498 1.14029,0.204679 1.73546,0.335865 1.81895,0.401026 0.14506,0.113692 0.23654,0.49713 0.20244,0.852928 -0.0271,0.277867 -0.24114,2.229233 -0.70552,6.424636 -0.0993,0.891819 -0.2414,2.202243 -0.31707,2.912058 -0.18295,1.708174 -0.24438,1.83326 -0.77628,1.559734 z"
         id="path1923-6-4-2-7-5-4-4-0-7-7" />
      <path
         style="fill:#2b0000;fill-opacity:1;stroke-width:0.0548093"
         d="m 379.94258,33.022118 c -0.0817,-0.03461 -0.15914,-0.100161 -0.17104,-0.145654 -0.0217,-0.08625 0.2073,-2.356176 0.40695,-4.015205 0.0636,-0.527812 0.17699,-1.540414 0.25358,-2.250229 0.0755,-0.709812 0.17889,-1.633067 0.22814,-2.051674 0.15913,-1.350603 0.10717,-1.883849 -0.23139,-2.378224 -0.24817,-0.361628 -0.4417,-0.444855 -1.3124,-0.56405 -0.43694,-0.05981 -1.23349,-0.179456 -1.77021,-0.265897 -0.53675,-0.08644 -1.24145,-0.19407 -1.56588,-0.239158 -0.32463,-0.04511 -0.62259,-0.09948 -0.66235,-0.120837 -0.0636,-0.03391 -0.0655,-0.08666 -0.0216,-0.416955 0.0755,-0.552521 0.15291,-0.647716 0.52322,-0.647716 0.33875,0 1.73443,0.135235 3.3816,0.327692 0.59916,0.06999 1.42654,0.162407 1.83841,0.205356 0.87368,0.09109 1.01961,0.169931 1.07227,0.579506 0.0279,0.212176 -0.53593,5.441753 -0.9884,9.178932 -0.0479,0.400409 -0.13532,1.137409 -0.1908,1.637782 -0.0834,0.737695 -0.1234,0.941106 -0.21028,1.075472 -0.11529,0.179321 -0.30135,0.208387 -0.58105,0.09085 z"
         id="path1925-9-2-86-8-4-1-9-0-5-8" />
      <path
         style="fill:#2b0000;fill-opacity:1;stroke-width:0.0548093"
         d="m 381.79452,31.600234 c -0.13722,-0.05459 -0.25548,-0.10801 -0.26279,-0.118727 0,-0.01055 0.0298,-0.373159 0.0834,-0.805438 0.0536,-0.43227 0.18484,-1.560294 0.29442,-2.50671 0.10933,-0.946421 0.32202,-2.792928 0.47312,-4.103355 0.15101,-1.310425 0.27469,-2.539938 0.27469,-2.73225 6.2e-4,-0.617562 -0.27153,-1.222339 -0.66535,-1.480127 -0.19296,-0.126873 -0.31724,-0.139322 -4.57713,-0.460338 -0.54906,-0.04138 -1.01203,-0.09402 -1.02854,-0.116968 -0.0217,-0.023 0,-0.212961 0.0217,-0.4223 0.0317,-0.27001 0.0855,-0.441156 0.17889,-0.58901 l 0.13315,-0.208388 1.09891,0.04303 c 0.60432,0.02355 2.16083,0.07597 3.45917,0.116291 2.59994,0.08065 2.56178,0.07356 2.68324,0.497439 0.0733,0.25315 0.0479,0.524448 -0.38503,4.095172 -0.10149,0.837218 -0.28806,2.400795 -0.41491,3.474613 -0.42559,3.59999 -0.58803,4.885969 -0.63772,5.044762 -0.10148,0.321885 -0.35664,0.418263 -0.72359,0.272327 z"
         id="path1927-3-7-6-8-3-6-5-9-1-1" />
    </g>
  </g>
</svg>
