<!-- Created with Inkscape (http://www.inkscape.org/) -->
<svg width="25mm" height="25mm" version="1.1" viewBox="0 0 25 25" xmlns="http://www.w3.org/2000/svg">
 <g transform="matrix(1.2284 .31838 -.31838 1.2284 -838.29 -655.85)" fill="#dfbce8">
  <path d="m775.47 350.3c-0.758-0.71164-0.82751-0.79378-1.3141-1.5528-0.4235-0.66061-0.48668-0.80482-0.73735-1.6827-0.27912-0.97757-0.31651-2.2725-0.0907-3.1404 0.14201-0.54585 0.50317-1.5003 0.68714-1.816 0.18787-0.3194 0.79342-1.0542 1.1877-1.4367 0.96366-0.93479 2.5426-1.585 4.0675-1.675 0.4596-0.0271 0.92407-0.1058 1.0321-0.17487 0.15166-0.0969 0.42567-0.5225 1.2004-1.8643l1.0039-1.7388-0.13413-0.23778c-0.25868-0.45853-0.0554-1.1117 0.43266-1.39 0.32478-0.1852 0.58907-0.15374 1.0809 0.12867 0.46256 0.26706 0.59392 0.25157 0.60415-0.0664 9e-3 -0.28578 0.36813-0.62362 0.82754-0.77941 0.81115-0.27481 1.6227 0.37378 1.569 1.254-0.0182 0.29902-0.21936 0.68079-0.42655 0.80941-0.18883 0.1173-0.0971 0.19947 0.90306 0.8089 0.88933 0.54186 0.94606 0.62553 0.84638 1.248-0.0571 0.35636-0.0734 0.38449-0.33292 0.57064-0.14989 0.10781-0.4196 0.21495-0.59938 0.23809l-0.32683 0.0421-0.9529 1.6505c-1.1678 2.0227-1.1951 2.1254-0.77019 2.9007 0.14986 0.27346 0.3684 0.84612 0.48562 1.2725 0.35435 1.2889 0.32808 2.2876-0.10085 3.8362-0.11556 0.41717-0.86473 1.7126-1.1667 2.0148-0.68025 0.68482-0.92202 0.89113-1.4266 1.2172-0.69842 0.45147-1.8434 0.88457-2.5162 0.95182-0.2856 0.0285-0.57047 0.063-0.63301 0.0765-0.17529 0.038-1.203-0.0477-1.5598-0.12999-0.17534-0.0405-0.4135-0.0855-0.52922-0.10017-0.21331-0.027-2.0969-1.0337-2.312-1.2358zm3.773-1.9789c0.46179 0.0373 0.72677-0.10531 0.96607-0.51979 0.25428-0.44042 0.21374-0.82471-0.12485-1.1837-0.1988-0.21085-0.27587-0.2468-0.60377-0.28207-0.8607-0.0925-1.4451 0.89835-0.93721 1.5889 0.21479 0.29198 0.34965 0.36844 0.69954 0.39695zm-1.6142-3.2742c0.89178 0.0543 1.505-1.0078 1.012-1.7529-0.26022-0.39334-0.65774-0.56471-1.1131-0.4798-0.52021 0.097-0.85588 0.3726-0.93803 0.77016-0.15791 0.76436 0.30636 1.4179 1.0391 1.4625zm4.5772 0.075c0.55958 0.029 1.2864-0.35672 1.563-0.82953 0.1375-0.23215 0.20428-0.83761 0.13434-1.1938-0.0872-0.44412-0.37904-0.83002-0.80931-1.0702-0.90062-0.50254-1.984-0.0836-2.3692 0.91629-0.1787 0.46393-0.14838 0.7899 0.12346 1.3273 0.21924 0.43348 0.8417 0.8231 1.3577 0.84991z"/>
  <circle cx="783.51" cy="331.95" r=".86036"/>
  <circle cx="785.88" cy="331.09" r=".56706"/>
 </g>
</svg>
