<!-- Created with Inkscape (http://www.inkscape.org/) -->
<svg width="25mm" height="25mm" version="1.1" viewBox="0 0 25 25" xmlns="http://www.w3.org/2000/svg">
 <path d="m11.108 24.58c-0.47894-0.27896-0.64511-0.86909-0.64511-2.2912 0-0.75067-0.04742-1.3649-0.10525-1.3649s-0.56033 0.45814-1.1166 1.0181c-1.3859 1.3953-1.8771 1.4808-2.9326 0.51085-0.67547-0.62074-0.87069-0.96726-0.87069-1.5458 0-0.3921 0.28457-0.72817 2.5126-2.9674 2.3558-2.3677 2.5125-2.5567 2.5125-3.0299 0-0.50263-0.0033-0.50476-0.57239-0.50476-0.55984 0-0.62502 0.0523-2.9625 2.3767l-2.3901 2.3767h-0.63615c-0.54425 0-0.71772-0.07357-1.2006-0.5093-0.65417-0.59031-0.97998-1.2641-0.86481-1.7885 0.045029-0.2054 0.49906-0.78326 1.0263-1.3065 0.51993-0.51599 0.94538-0.97936 0.94538-1.0297 0-0.05035-0.52449-0.11308-1.1655-0.13945-1.119-0.0459-1.1814-0.06564-1.5618-0.49142-0.35087-0.39271-0.39629-0.54375-0.39629-1.3178 0-1.5904 0.41186-1.9735 2.1213-1.9735h1.0483l-0.95559-0.98549c-0.58638-0.60475-0.99096-1.1466-1.0471-1.4024-0.23409-1.0658 0.96319-2.3655 2.1792-2.3655 0.47574 0 0.65707 0.14876 2.8975 2.3767 2.3375 2.3244 2.4027 2.3767 2.9625 2.3767 0.56999 0 0.57239-0.0022 0.57239-0.50475 0-0.47326-0.15668-0.66225-2.5125-3.03-2.3639-2.3758-2.5126-2.5553-2.5126-3.0345 0-0.42653 0.11308-0.62888 0.69595-1.2452 0.75565-0.79895 1.3416-1.0264 1.9042-0.73914 0.17595 0.089842 0.7935 0.62876 1.3724 1.1976l1.0525 1.0343v-1.4504c0-0.83526 0.06879-1.6014 0.16227-1.8065 0.23546-0.51679 0.78322-0.74317 1.7981-0.74317 0.78837 0 0.93686 0.044161 1.3309 0.39603 0.44135 0.39411 0.44376 0.40315 0.49034 1.851l0.04677 1.455 0.90386-0.88506c0.49714-0.48681 1.0478-0.95866 1.2238-1.0486 0.56243-0.28746 1.1484-0.060003 1.9041 0.73901 0.75639 0.79974 0.87198 1.2486 0.50148 1.9472-0.10699 0.20171-1.1765 1.3439-2.3767 2.5381-2.138 2.1275-2.1822 2.1831-2.1822 2.7502 0 0.57862 1.51e-4 0.57881 0.51087 0.57881 0.47936 0 0.64495-0.13471 2.6823-2.1822 1.1943-1.2002 2.3364-2.2698 2.5381-2.3767 0.2017-0.10699 0.59242-0.19448 0.86823-0.19448 0.41771 0 0.61009 0.10854 1.1512 0.6497 1.1322 1.1322 1.0777 1.6746-0.31243 3.1083l-0.96526 0.99546h2.6535l0.46176 0.46175c0.43824 0.43824 0.46176 0.5108 0.46176 1.4239 0 0.87093-0.03754 1.0042-0.39605 1.4057-0.3935 0.44069-0.40519 0.44383-1.8335 0.48984-0.79059 0.02539-1.4374 0.08235-1.4374 0.12654 0 0.04405 0.48891 0.58113 1.0865 1.1934 0.95982 0.98338 1.0865 1.1714 1.0865 1.6132 0 0.41542-0.11787 0.62462-0.69595 1.2359-0.79175 0.83717-1.3378 1.0299-1.9699 0.69513-0.21446-0.11357-1.4283-1.2496-2.6973-2.5246-2.0451-2.0546-2.3577-2.318-2.7502-2.318-0.43268 0-0.44287 0.01378-0.44287 0.59605 0 0.58672 0.0332 0.62976 2.1198 2.7502 1.1659 1.1848 2.2354 2.2999 2.3767 2.4781 0.49967 0.62994 0.25628 1.5317-0.62143 2.3023-0.9817 0.86196-1.5293 0.7569-2.8796-0.55247l-0.99547-0.96524v1.3221c0 2.0145-0.2958 2.3853-1.9014 2.3836-0.56022-6.4e-4 -1.1256-0.06337-1.2563-0.13954z" fill="#caecfb"/>
</svg>
