<!-- Created with Inkscape (http://www.inkscape.org/) -->
<svg width="25mm" height="25mm" version="1.1" viewBox="0 0 25 25" xmlns="http://www.w3.org/2000/svg">
 <g transform="matrix(.8462 0 0 .8462 -818.69 -273.34)" fill="#dfd9c0">
  <g transform="matrix(.77411 0 0 .78323 240.56 68.742)">
   <path d="m962.9 356.94c-0.036-0.036-0.0654-0.0967-0.0654-0.13502 0-0.0587-0.13923-0.42226-0.34266-0.89477-0.0267-0.062-0.15167-0.37927-0.27769-0.70495-0.12603-0.32568-0.25068-0.64291-0.27701-0.70494-0.0263-0.062-0.092-0.227-0.14596-0.36658-0.1693-0.43798-0.18389-0.47465-0.26936-0.67675-0.0459-0.10857-0.165-0.4131-0.26465-0.67675-0.0996-0.26365-0.21339-0.5555-0.25274-0.64855-0.17927-0.42395-0.19922-0.49189-0.16273-0.55409 0.0426-0.0726 0.98103-1.3299 1.1702-1.5678 0.0647-0.0814 0.16842-0.21919 0.23046-0.30619 0.062-0.087 0.40382-0.53792 0.75953-1.002 0.48715-0.63563 0.69589-0.86416 0.84593-0.92616 0.1854-0.0766 0.34095-0.14593 1.028-0.4581 0.14564-0.0662 0.27823-0.12031 0.29467-0.12031 0.0164 0 0.20181-0.0784 0.41196-0.17412 0.21015-0.0958 0.45823-0.20696 0.55127-0.24709 0.33429-0.14418 0.5692-0.24819 0.88462-0.39167 0.17637-0.0802 0.33434-0.14586 0.35106-0.14586 0.0168 0 0.20234-0.0784 0.41249-0.17412 0.36051-0.16428 0.632-0.28402 0.88964-0.39236 0.062-0.0261 0.26506-0.11452 0.45118-0.19651 0.1861-0.082 0.42084-0.18494 0.52165-0.22879 0.10081-0.0439 0.26721-0.11667 0.36977-0.1618 0.72813-0.32043 1.1303-0.48102 1.1515-0.45982 0.0136 0.0136-3e-3 0.21086-0.0354 0.43839-0.0331 0.22752-0.0875 0.70552-0.12084 1.0622-0.0749 0.80061-0.12992 1.3494-0.25158 2.5096-0.052 0.49629-0.11593 1.118-0.14195 1.3817-0.1798 1.8211-0.223 2.2196-0.24979 2.304-0.0241 0.076-1.6654 1.1521-2.3349 1.5309-0.0822 0.0465-0.22947 0.1417-0.3272 0.21148-0.0977 0.0698-0.19447 0.1269-0.21501 0.1269-0.0205 0-0.12054 0.0634-0.2222 0.14099-0.10166 0.0775-0.19942 0.14098-0.21723 0.14098-0.0178 0-0.91633 0.55299-1.9967 1.2288-1.0804 0.67585-1.992 1.2458-2.0258 1.2666-0.0338 0.0208-0.0909 8e-3 -0.12688-0.0276z"/>
   <path d="m971.24 351.91c0-0.1377 0.0249-0.4362 0.0552-0.66332 0.0304-0.22713 0.0827-0.7048 0.11625-1.0615 0.0623-0.66217 0.0889-0.92841 0.25079-2.5096 0.0508-0.49628 0.11503-1.1307 0.14272-1.4099 0.10943-1.1033 0.12359-1.1806 0.19788-1.079 0.0377 0.0516 0.10987 0.15053 0.16029 0.21983 0.0504 0.0693 0.75683 1.065 1.5698 2.2126 0.81299 1.1476 1.511 2.1202 1.551 2.1612 0.0401 0.041 0.0729 0.0933 0.0729 0.11627 0 0.0229 0.0452 0.0909 0.10049 0.15105 0.0553 0.0601 0.15563 0.19928 0.22302 0.30924 0.0674 0.10995 0.17446 0.25976 0.23789 0.3329 0.0634 0.0731 0.11534 0.1497 0.11534 0.17013 0 0.0204 0.0473 0.0879 0.10517 0.15001 0.0578 0.0621 0.13507 0.16876 0.17162 0.23706 0.0775 0.14486 0.0632 0.15288-0.36137 0.20196-0.15509 0.0179-0.53577 0.072-0.84594 0.12006-1.1948 0.18533-2.0312 0.31145-2.7634 0.4167-0.1861 0.0268-0.40182 0.0624-0.47936 0.0792-0.0775 0.0169-0.24885 0.0452-0.38067 0.063l-0.23968 0.0324z"/>
   <path d="m964.19 357.21c0-0.0328 0.71997-0.4915 1.6073-1.0242 0.40323-0.24207 0.74161-0.46113 0.75195-0.48678 0.0103-0.0256 0.0409-0.0466 0.0679-0.0466s0.90089-0.53361 1.9419-1.1858c1.041-0.65219 1.9875-1.2392 2.1033-1.3046 0.21622-0.122 0.82356-0.27301 1.0979-0.27301 0.0849 0 0.26253-0.0246 0.3948-0.0547s0.53234-0.0942 0.88904-0.14251c0.3567-0.0483 0.77545-0.11151 0.93053-0.14046 0.15509-0.029 0.57383-0.0935 0.93053-0.14338 0.3567-0.0499 0.76275-0.11277 0.90233-0.13968 0.48465-0.0934 0.84594-0.11831 0.84594-0.0582 0 0.0319-0.0888 0.2504-0.19739 0.48542-0.10856 0.23504-0.19738 0.43845-0.19738 0.45203 0 0.0136-0.0487 0.13227-0.10816 0.26377-0.0595 0.13148-0.18637 0.41213-0.28198 0.62367-0.0956 0.21153-0.17382 0.39488-0.17382 0.40746 0 0.0125-0.0784 0.19477-0.17412 0.40493-0.16429 0.36051-0.28403 0.63199-0.39237 0.88965-0.0261 0.062-0.11451 0.26505-0.19651 0.45116s-0.18706 0.4272-0.23349 0.53576c-0.0464 0.10857-0.10407 0.23545-0.12809 0.28198-0.0377 0.073-0.47538 0.0895-3.1958 0.12016-1.7336 0.0196-4.0594 0.0519-5.1682 0.0718-1.1089 0.0199-2.0162 0.0254-2.0162 0.0122z"/>
  </g>
  <g transform="matrix(.77411 0 0 .78323 225.5 68.742)">
   <path d="m962.9 356.94c-0.036-0.036-0.0654-0.0967-0.0654-0.13502 0-0.0587-0.13923-0.42226-0.34266-0.89477-0.0267-0.062-0.15167-0.37927-0.27769-0.70495-0.12603-0.32568-0.25068-0.64291-0.27701-0.70494-0.0263-0.062-0.092-0.227-0.14596-0.36658-0.1693-0.43798-0.18389-0.47465-0.26936-0.67675-0.0459-0.10857-0.165-0.4131-0.26465-0.67675-0.0996-0.26365-0.21339-0.5555-0.25274-0.64855-0.17927-0.42395-0.19922-0.49189-0.16273-0.55409 0.0426-0.0726 0.98103-1.3299 1.1702-1.5678 0.0647-0.0814 0.16842-0.21919 0.23046-0.30619 0.062-0.087 0.40382-0.53792 0.75953-1.002 0.48715-0.63563 0.69589-0.86416 0.84593-0.92616 0.1854-0.0766 0.34095-0.14593 1.028-0.4581 0.14564-0.0662 0.27823-0.12031 0.29467-0.12031 0.0164 0 0.20181-0.0784 0.41196-0.17412 0.21015-0.0958 0.45823-0.20696 0.55127-0.24709 0.33429-0.14418 0.5692-0.24819 0.88462-0.39167 0.17637-0.0802 0.33434-0.14586 0.35106-0.14586 0.0168 0 0.20234-0.0784 0.41249-0.17412 0.36051-0.16428 0.632-0.28402 0.88964-0.39236 0.062-0.0261 0.26506-0.11452 0.45118-0.19651 0.1861-0.082 0.42084-0.18494 0.52165-0.22879 0.10081-0.0439 0.26721-0.11667 0.36977-0.1618 0.72813-0.32043 1.1303-0.48102 1.1515-0.45982 0.0136 0.0136-3e-3 0.21086-0.0354 0.43839-0.0331 0.22752-0.0875 0.70552-0.12084 1.0622-0.0749 0.80061-0.12992 1.3494-0.25158 2.5096-0.052 0.49629-0.11593 1.118-0.14195 1.3817-0.1798 1.8211-0.223 2.2196-0.24979 2.304-0.0241 0.076-1.6654 1.1521-2.3349 1.5309-0.0822 0.0465-0.22947 0.1417-0.3272 0.21148-0.0977 0.0698-0.19447 0.1269-0.21501 0.1269-0.0205 0-0.12054 0.0634-0.2222 0.14099-0.10166 0.0775-0.19942 0.14098-0.21723 0.14098-0.0178 0-0.91633 0.55299-1.9967 1.2288-1.0804 0.67585-1.992 1.2458-2.0258 1.2666-0.0338 0.0208-0.0909 8e-3 -0.12688-0.0276z"/>
   <path d="m971.24 351.91c0-0.1377 0.0249-0.4362 0.0552-0.66332 0.0304-0.22713 0.0827-0.7048 0.11625-1.0615 0.0623-0.66217 0.0889-0.92841 0.25079-2.5096 0.0508-0.49628 0.11503-1.1307 0.14272-1.4099 0.10943-1.1033 0.12359-1.1806 0.19788-1.079 0.0377 0.0516 0.10987 0.15053 0.16029 0.21983 0.0504 0.0693 0.75683 1.065 1.5698 2.2126 0.81299 1.1476 1.511 2.1202 1.551 2.1612 0.0401 0.041 0.0729 0.0933 0.0729 0.11627 0 0.0229 0.0452 0.0909 0.10049 0.15105 0.0553 0.0601 0.15563 0.19928 0.22302 0.30924 0.0674 0.10995 0.17446 0.25976 0.23789 0.3329 0.0634 0.0731 0.11534 0.1497 0.11534 0.17013 0 0.0204 0.0473 0.0879 0.10517 0.15001 0.0578 0.0621 0.13507 0.16876 0.17162 0.23706 0.0775 0.14486 0.0632 0.15288-0.36137 0.20196-0.15509 0.0179-0.53577 0.072-0.84594 0.12006-1.1948 0.18533-2.0312 0.31145-2.7634 0.4167-0.1861 0.0268-0.40182 0.0624-0.47936 0.0792-0.0775 0.0169-0.24885 0.0452-0.38067 0.063l-0.23968 0.0324z"/>
   <path d="m964.19 357.21c0-0.0328 0.71997-0.4915 1.6073-1.0242 0.40323-0.24207 0.74161-0.46113 0.75195-0.48678 0.0103-0.0256 0.0409-0.0466 0.0679-0.0466s0.90089-0.53361 1.9419-1.1858c1.041-0.65219 1.9875-1.2392 2.1033-1.3046 0.21622-0.122 0.82356-0.27301 1.0979-0.27301 0.0849 0 0.26253-0.0246 0.3948-0.0547s0.53234-0.0942 0.88904-0.14251c0.3567-0.0483 0.77545-0.11151 0.93053-0.14046 0.15509-0.029 0.57383-0.0935 0.93053-0.14338 0.3567-0.0499 0.76275-0.11277 0.90233-0.13968 0.48465-0.0934 0.84594-0.11831 0.84594-0.0582 0 0.0319-0.0888 0.2504-0.19739 0.48542-0.10856 0.23504-0.19738 0.43845-0.19738 0.45203 0 0.0136-0.0487 0.13227-0.10816 0.26377-0.0595 0.13148-0.18637 0.41213-0.28198 0.62367-0.0956 0.21153-0.17382 0.39488-0.17382 0.40746 0 0.0125-0.0784 0.19477-0.17412 0.40493-0.16429 0.36051-0.28403 0.63199-0.39237 0.88965-0.0261 0.062-0.11451 0.26505-0.19651 0.45116s-0.18706 0.4272-0.23349 0.53576c-0.0464 0.10857-0.10407 0.23545-0.12809 0.28198-0.0377 0.073-0.47538 0.0895-3.1958 0.12016-1.7336 0.0196-4.0594 0.0519-5.1682 0.0718-1.1089 0.0199-2.0162 0.0254-2.0162 0.0122z"/>
  </g>
  <path d="m981.59 345.74c0-0.01 0.10522-0.25651 0.23386-0.54747 0.12862-0.29097 0.23384-0.57201 0.23384-0.62453 0-0.17753-0.24469-0.84336-0.35322-0.9611-0.0917-0.0995-0.26053-0.33287-0.71064-0.98221-0.0446-0.0643-0.24485-0.34695-0.44503-0.62809-0.20019-0.28115-0.34774-0.52486-0.3279-0.54158 0.0351-0.0295 0.38709-0.24855 2.1472-1.3358 1.0785-0.66625 1.4407-0.80592 2.3557-0.90834 0.2444-0.0274 0.83373-0.11248 1.3096-0.18915 0.4759-0.0767 1.6335-0.25543 2.5725-0.39722s2.1032-0.32171 2.5872-0.39981c0.484-0.0781 0.96184-0.1356 1.0619-0.12777 0.16576 0.013 0.098 0.0504-0.76306 0.42122-0.51975 0.22383-1.4607 0.63137-2.0909 0.90567-0.63027 0.27429-1.4511 0.63055-1.8241 0.79171-1.4993 0.6478-1.4353 0.6087-1.8457 1.1276-0.70778 0.895-2.0364 2.6864-2.0364 2.7457 0 0.033 0.13668 0.40632 0.30374 0.82968 0.16706 0.42333 0.30385 0.7855 0.30401 0.80478 1.6e-4 0.0193-0.61008 0.0351-1.3561 0.0351s-1.3564-8e-3 -1.3564-0.0185z"/>
  <path d="m984.12 337.59c0-0.25093 0.0309-0.70821 0.0686-1.0161s0.24852-2.3489 0.46842-4.5355c0.43288-4.3045 0.48278-4.7509 0.53766-4.8094 0.0198-0.0212 0.70628 0.90485 1.5252 2.058 0.81891 1.1531 1.9412 2.728 2.494 3.4998 0.5528 0.77174 1.1008 1.5424 1.218 1.7125 0.11708 0.17013 0.32697 0.47533 0.46641 0.67821 0.13943 0.20288 0.32099 0.45307 0.40343 0.55597 0.0825 0.10289 0.18484 0.25024 0.22755 0.32742 0.0427 0.0772 0.16144 0.24553 0.26386 0.37417 0.32195 0.40426 0.33698 0.39545-1.0081 0.59058-0.64312 0.0933-2.1586 0.3193-3.3676 0.50226-1.8991 0.28739-2.5217 0.38491-3.1688 0.4963l-0.12862 0.0222z"/>
  <path d="m969.5 341.27c-1.0541-2.6608-1.5687-3.9856-1.5687-4.0385 0-0.0639 3.0852-4.1824 3.7671-5.0289 0.23836-0.29583 0.51432-0.61532 0.61325-0.70996 0.17767-0.16994 1.0833-0.6061 2.2613-1.089 0.27012-0.11075 1.1596-0.49845 1.9766-0.86159 0.817-0.36314 1.4984-0.66024 1.5142-0.66024 0.0159 0 0.35764-0.14536 0.75962-0.32305 0.40201-0.1777 1.4044-0.61709 2.2276-0.97642 2.6554-1.1592 2.9233-1.2657 2.9233-1.1623 0 0.0324-0.0318 0.29964-0.0707 0.59383s-0.1237 1.0611-0.18844 1.7042c-0.6509 6.4638-0.96499 9.4636-0.9993 9.5442-0.0466 0.10951-0.97288 0.75948-2.1092 1.48-1.0496 0.66558-1.1632 0.72781-1.2058 0.66058-0.19921-0.31401-1.3057-1.8381-1.3349-1.8386-0.0212 0-0.17111-0.0954-0.33335-0.21114-0.16222-0.11575-0.3271-0.21048-0.36642-0.21048-0.0676 0-1.0984 0.43683-2.5256 1.0703-0.35452 0.15734-0.65329 0.28609-0.66395 0.28609-0.018 0-1.4211 0.61092-2.5502 1.1104-0.27012 0.11949-0.54031 0.26054-0.60045 0.31345-0.0602 0.0529-0.3022 0.34658-0.5379 0.65254-0.23569 0.30599-0.46116 0.59778-0.50104 0.64842-0.0682 0.0865-0.0977 0.0287-0.48691-0.95388z"/>
 </g>
</svg>
