<?xml version="1.0" encoding="UTF-8" standalone="no"?>
<!-- Created with Inkscape (http://www.inkscape.org/) -->

<svg
   width="25mm"
   height="25mm"
   viewBox="0 0 25 25"
   version="1.1"
   id="svg1120"
   inkscape:version="1.2.2 (732a01da63, 2022-12-09)"
   sodipodi:docname="type-ice.svg"
   xmlns:inkscape="http://www.inkscape.org/namespaces/inkscape"
   xmlns:sodipodi="http://sodipodi.sourceforge.net/DTD/sodipodi-0.dtd"
   xmlns="http://www.w3.org/2000/svg"
   xmlns:svg="http://www.w3.org/2000/svg">
  <sodipodi:namedview
     id="namedview1122"
     pagecolor="#505050"
     bordercolor="#eeeeee"
     borderopacity="1"
     inkscape:showpageshadow="0"
     inkscape:pageopacity="0"
     inkscape:pagecheckerboard="0"
     inkscape:deskcolor="#505050"
     inkscape:document-units="mm"
     showgrid="false"
     inkscape:zoom="6.2502245"
     inkscape:cx="54.158055"
     inkscape:cy="45.438368"
     inkscape:window-width="1920"
     inkscape:window-height="1057"
     inkscape:window-x="-8"
     inkscape:window-y="-8"
     inkscape:window-maximized="1"
     inkscape:current-layer="layer1" />
  <defs
     id="defs1117" />
  <g
     inkscape:label="Capa 1"
     inkscape:groupmode="layer"
     id="layer1">
    <path
       style="fill:#caecfb;fill-opacity:1;stroke:none;stroke-width:0.370093;stroke-opacity:1"
       d="m 11.107944,24.580005 c -0.478939,-0.278965 -0.645113,-0.869089 -0.645113,-2.291192 0,-0.750667 -0.04742,-1.364868 -0.10525,-1.364868 -0.05783,0 -0.5603279,0.458139 -1.1165546,1.018076 -1.3859282,1.395271 -1.877063,1.480816 -2.9325733,0.510851 C 5.63298,21.832128 5.4377586,21.485608 5.4377586,20.907051 c 0,-0.392103 0.2845748,-0.728174 2.5125632,-2.967403 2.3558282,-2.367721 2.5125092,-2.556681 2.5125092,-3.029945 0,-0.502626 -0.0033,-0.504763 -0.5723942,-0.504763 -0.5598399,0 -0.6250186,0.0523 -2.9624988,2.376715 L 4.5378656,19.158381 H 3.9017144 c -0.5442478,0 -0.7177248,-0.07357 -1.2005699,-0.509298 C 2.0469708,18.058775 1.7211643,17.384962 1.836331,16.86057 1.88136,16.655171 2.3353866,16.077309 2.8626426,15.554111 c 0.519932,-0.515993 0.9453782,-0.979362 0.9453782,-1.02973 0,-0.05035 -0.5244892,-0.113083 -1.1655447,-0.13945 -1.1189528,-0.0459 -1.1813863,-0.06564 -1.5618466,-0.491417 -0.35087101,-0.39271 -0.396291,-0.543748 -0.396291,-1.317787 0,-1.590351 0.4118614,-1.973523 2.121285,-1.973523 H 3.853929 L 2.8983406,9.6167118 C 2.3119605,9.0119619 1.9073797,8.4701229 1.8512069,8.2142692 1.6171193,7.1484294 2.8144015,5.8487622 4.0303899,5.8487622 c 0.4757381,0 0.6570708,0.1487597 2.8975481,2.3767155 2.3374802,2.3244373 2.4026589,2.3767263 2.9624988,2.3767263 0.5699852,0 0.5723942,-0.0022 0.5723942,-0.504753 0,-0.4732632 -0.156681,-0.6622456 -2.5125092,-3.0299552 C 5.5864207,4.6916701 5.4377586,4.5121494 5.4377586,4.0329934 5.4377586,3.6064622 5.550842,3.4041121 6.1337066,2.787839 6.8893538,1.9888877 7.4753324,1.7614188 8.0378632,2.0486954 8.2138141,2.1385371 8.8313676,2.6774573 9.4102826,3.2462923 L 10.462831,4.2805465 V 2.830134 c 0,-0.8352569 0.06879,-1.601429 0.162268,-1.8065134 0.235465,-0.51678534 0.783218,-0.74316916 1.798126,-0.74316916 0.788372,0 0.93686,0.0441613 1.330927,0.39603064 0.441353,0.39411012 0.443762,0.40314862 0.490343,1.85102202 l 0.04677,1.4549696 0.903864,-0.8850605 c 0.497136,-0.4868055 1.047818,-0.9586591 1.223769,-1.0485876 0.562433,-0.2874611 1.148411,-0.060003 1.904135,0.7390134 0.756386,0.7997434 0.871975,1.2485615 0.501475,1.947222 -0.106986,0.2017099 -1.176493,1.3438719 -2.376737,2.5381377 -2.138049,2.1274589 -2.182221,2.1831326 -2.182221,2.7501983 0,0.578622 1.51e-4,0.578807 0.510871,0.578807 0.479362,0 0.644951,-0.134709 2.682319,-2.1822319 1.194266,-1.2002444 2.336418,-2.2697518 2.538127,-2.3767264 0.2017,-0.1069854 0.592423,-0.1944835 0.868232,-0.1944835 0.41771,0 0.610088,0.1085371 1.151211,0.6497034 1.132211,1.1322012 1.077677,1.6746479 -0.312428,3.1082746 l -0.965256,0.9954638 h 1.326771 1.326739 l 0.461762,0.461751 c 0.438239,0.438239 0.461763,0.510796 0.461763,1.423894 0,0.870934 -0.03754,1.004166 -0.396052,1.405665 -0.393503,0.440692 -0.405189,0.443827 -1.833455,0.489844 -0.790586,0.02539 -1.437414,0.08235 -1.437414,0.126538 0,0.04405 0.488911,0.581129 1.08651,1.193365 0.95982,0.983377 1.086488,1.171404 1.086488,1.613191 0,0.415421 -0.117868,0.624617 -0.695948,1.235921 -0.791746,0.837167 -1.337817,1.02986 -1.969877,0.695134 -0.21446,-0.113572 -1.428256,-1.249646 -2.697271,-2.524553 -2.045104,-2.054555 -2.357662,-2.318014 -2.75022,-2.318014 -0.432684,0 -0.442872,0.01378 -0.442872,0.596048 0,0.586716 0.0332,0.62976 2.119776,2.750198 1.165914,1.184794 2.235421,2.299916 2.376738,2.478059 0.499674,0.629945 0.256276,1.531682 -0.621428,2.302336 -0.981705,0.86196 -1.529262,0.756895 -2.879612,-0.552473 L 14.26555,21.013863 v 1.322095 c 0,2.014527 -0.295805,2.385342 -1.901368,2.383584 -0.56022,-6.4e-4 -1.12555,-0.06337 -1.256277,-0.139537 z"
       id="path66418-6-4" />
  </g>
</svg>
