<!-- Created with Inkscape (http://www.inkscape.org/) -->
<svg width="25mm" height="25mm" version="1.1" viewBox="0 0 25 25" xmlns="http://www.w3.org/2000/svg">
 <g transform="matrix(-1.36 .36479 .36479 1.36 1012.6 -431.57)" fill="#f1cdc0">
  <path transform="scale(.26458)" d="m2901 474.37c-5.5848-2.0779-11.727-5.0043-16.479-7.8511-3.3268-1.993-4.457-3.2323-7.7844-8.5359-3.0376-4.8415-3.9008-8.6309-2.9673-13.028 1.0628-5.0062 3.4989-8.0615 7.3845-9.2617 4.0235-1.2427 7.1165-0.70377 7.8379 1.3658 0.8626 2.4745 0.1842 5.7017-1.8602 8.8478-1.2287 1.891-1.3288 2.2082-1.3072 4.144l0.023 2.0963 0.6096-1.7165c0.3379-0.9517 1.1957-2.3524 1.9252-3.1438 2.0685-2.2441 2.9775-4.5567 2.9947-7.6192 0.012-2.062-0.1328-2.8607-0.7424-4.1064-1.8977-3.8779 0.824-9.2214 5.6787-11.149 2.5356-1.0069 9.5477-1.0123 13.226-0.0103 9.7603 2.6586 15.753 7.7757 17.708 15.121 0.6095 2.2902 0.5982 6.9115-0.023 9.379-1.0735 4.2652-5.9294 12.865-10.253 18.156-2.5592 3.1327-9.442 9.2631-10.366 9.2328-0.2672-9e-3 -2.7898-0.87313-5.6057-1.9208z"/>
  <path transform="scale(.26458)" d="m2898.1 487.6c-7.3812-1.504-16.466-5.9251-19.667-9.5712-2.0061-2.2848-2.0106-2.5331-0.1185-6.4289 0.9231-1.9006 1.7275-3.5842 1.7876-3.7413 0.06-0.15708 1.5423 0.5797 3.2939 1.6373 5.6808 3.4301 13.075 6.7723 19.664 8.8882 3.1102 0.99873 3.0108 0.79704 1.7527 3.5578-1.1805 2.5906-3.0757 5.3987-3.9439 5.8436-0.3121 0.15998-1.4461 0.084-2.7686-0.18544z"/>
 </g>
</svg>
