<!-- Created with Inkscape (http://www.inkscape.org/) -->
<svg width="25mm" height="25mm" version="1.1" viewBox="0 0 25 25" xmlns="http://www.w3.org/2000/svg">
 <g transform="matrix(.81207 .2935 -.28751 .82899 -556.66 -386.79)" fill="#d1e7c7">
  <path transform="scale(.26458)" d="m2921.6 830.17c3.0835-10.13 13.441-26.761 22.847-36.685 3.4054-3.5927 5.8828-6.5322 5.5054-6.5322-1.0792 0-13.57 10.328-17.143 14.175-4.2415 4.5664-11.885 14.477-14.021 18.181-0.9332 1.6178-2.0163 2.9415-2.4067 2.9415-0.3905 0-0.71-4.0642-0.71-9.0316 0-13.472 2.2056-19.527 9.9065-27.195 7.4145-7.3832 13.932-10.833 28.201-14.926 6.1702-1.7698 13.81-4.4248 16.977-5.8999 3.1671-1.4751 5.853-2.6821 5.9687-2.6821 0.1158 0-0.5085 2.1382-1.3872 4.7516-0.8787 2.6134-2.0562 9.028-2.6168 14.255-2.171 20.244-5.6032 30.329-13.195 38.773-6.7722 7.5323-18.55 11.86-32.375 11.895-5.9819 0.0152-6.1512-0.0464-5.5503-2.0207z"/>
  <path transform="scale(.26458)" d="m2896.9 809.35c-12.486-1.7002-20.013-6.92-25.137-17.431-2.2319-4.5781-4.2775-12.52-4.2776-16.608-1e-4 -2.1164-0.6396-6.5452-2.0691-14.331-0.6124-3.3353-1.0405-6.137-0.9514-6.2262 0.089-0.0891 1.5778 0.42179 3.3082 1.1353 3.3691 1.3893 8.9278 3.2116 12.609 4.1338 5.6192 1.4075 9.8693 2.9326 14.481 5.1966 3.9408 1.9346 5.707 3.1334 8.4779 5.7544 5.2846 4.9986 7.5881 8.9766 8.7316 15.079 1.086 5.7959 0.9283 16.105-0.2354 15.386-0.2026-0.12516-1.7627-2.2981-3.4671-4.8288-3.8744-5.753-9.5768-12.277-14.442-16.524-5.4336-4.7423-9.6184-7.7496-9.1967-6.6087 0.097 0.262 2.0648 2.4852 4.3731 4.9406 7.7022 8.1927 13.658 17.279 17.906 27.317 0.6912 1.6333 0.896 2.5276 0.8031 3.5071-0.06 0.6367-6.5598 0.70105-10.914 0.10805z"/>
  <path transform="scale(.26458)" d="m2920.6 777.16c-1.0418-1.6856 3.8661-20.303 5.3523-20.303 0.1881 0 0.341-0.45819 0.3398-1.0182 0-0.96605-0.06-0.94867-1.1362 0.3394-1.9377 2.3199-5.4903 9.2002-6.8261 13.22-1.2692 3.8196-1.2804 3.8349-2.0861 2.8399-0.4456-0.55022-0.8101-1.3444-0.8101-1.7648 0-0.42043-0.2385-1.0029-0.5299-1.2943-0.3309-0.3309-0.5434-2.2768-0.5657-5.1815-0.041-5.2918 0.5222-6.988 3.7843-11.404 2.0375-2.7581 4.4038-4.7201 9.8375-8.157 1.9463-1.231 4.5366-3.0161 5.7564-3.9669 1.2197-0.95078 2.3143-1.6321 2.4324-1.514s0.2574 1.3941 0.3095 2.8356c0.052 1.4415 0.5358 4.8493 1.0748 7.5729 1.155 5.8375 1.2497 10.667 0.2787 14.211-1.1934 4.355-2.5528 6.3164-6.6516 9.5973-2.9286 2.3443-9.9394 4.9914-10.56 3.9872z"/>
 </g>
</svg>
