<!-- Created with Inkscape (http://www.inkscape.org/) -->
<svg width="25mm" height="25mm" version="1.1" viewBox="0 0 25 25" xmlns="http://www.w3.org/2000/svg">
 <g transform="matrix(1.0667 -.89206 .89206 1.0667 -689.93 585.08)" fill="#d6e5bf">
  <path transform="scale(.26458)" d="m2458.1 55.262c-2.4493-0.84696-4.3161-2.0646-6.1691-4.0239-1.5187-1.6057-3.5854-5.1791-3.5861-6.2001-8e-4 -1.2563-1.9234 0.74642-3.0214 3.1474-0.4497 0.98308-0.9135 2.7052-1.0307 3.827-0.2607 2.4946-1.0761 3.5052-2.8279 3.5052-1.7832 0-2.7199-1.1289-2.7199-3.2781 0-4.9464 3.1475-10.663 7.3815-13.406l1.5782-1.0226v-5.012h-3.9737c-2.1855 0-4.2068-0.08945-4.4917-0.19877-0.6325-0.24274-1.4543-1.7626-1.4543-2.6898 0-0.37427 0.421-1.1014 0.9354-1.6158 0.9346-0.93465 0.9384-0.93535 4.9598-0.93535h4.0245v-1.5369c0-1.515-0.028-1.5563-1.9228-2.893-4.1853-2.9515-7.0369-8.2435-7.0369-13.059 0-2.2434 0.9117-3.3745 2.7199-3.3745 1.7827 0 2.5599 0.99527 2.83 3.6239 0.2238 2.178 1.6262 5.4848 2.7619 6.5127 0.6405 0.57961 0.6479 0.57134 0.6479-0.72541 0-0.92508 0.2275-1.5763 0.772-2.2095l0.772-0.89781 13.304-0.09018c11.379-0.07713 13.439-0.02007 14.241 0.39442 0.9078 0.46942 1.4697 1.5824 1.6926 3.3526 0.092 0.73114 0.1506 0.70054 0.993-0.51916 1.2126-1.7556 2.1447-4.3098 2.1447-5.8769 0-2.7285 1.8277-4.2688 3.9921-3.3644 1.4703 0.61431 1.8981 2.0041 1.4604 4.7438-0.6186 3.8727-1.7789 6.3596-4.2062 9.0154-0.915 1.0012-2.2897 2.2511-3.0549 2.7775-1.3256 0.91201-1.3913 1.0321-1.3913 2.5418v1.5846h4.0144c3.8355 0 4.0494 0.03499 4.7998 0.78543 1.0686 1.0686 1.0686 2.8004 0 3.869-0.7504 0.75043-0.9643 0.78543-4.7998 0.78543h-4.0144v5.0113l1.3599 0.979c4.5678 3.2882 7.2756 8.1823 7.3992 13.373 0.052 2.1963-0.8827 3.3554-2.7067 3.3554-1.696 0-2.8496-1.3974-2.8601-3.4644 0-0.82247-0.3381-2.2988-0.7421-3.2808-0.7073-1.7194-2.3104-4.1437-2.7282-4.1257-0.1111 0.0048-0.7302 1.1207-1.3759 2.4799-0.6456 1.3592-1.6878 3.068-2.316 3.7975-1.4663 1.7027-4.1798 3.4995-6.4802 4.291-3.3046 1.1369-2.9716 2.6905-3.0663-14.302l-0.083-14.925-0.8596-0.6417c-0.7446-0.55584-0.9852-0.58967-1.7984-0.25282-0.5164 0.21388-1.1015 0.74591-1.3004 1.1823-0.2515 0.55208-0.3615 5.1686-0.3615 15.178 0 11.3-0.086 14.382-0.4 14.374-0.2199-0.0058-1.1218-0.26006-2.0041-0.56514z"/>
  <path transform="scale(.26458)" d="m2455.4 7.9894c0-2.0303 1.9361-4.7566 4.2105-5.9291 4.491-2.3152 10.048 0.49133 10.998 5.5542l0.2223 1.1851h-15.431z"/>
 </g>
</svg>
