<!-- Created with Inkscape (http://www.inkscape.org/) -->
<svg width="25mm" height="25mm" version="1.1" viewBox="0 0 25 25" xmlns="http://www.w3.org/2000/svg">
 <path d="m4.1445 18.546c-3.2726-4.1474-4.2698-10.13-2.5848-15.509l0.27154-0.86697 1.2895-0.40827c4.3675-1.3828 8.9486-1.1319 12.646 0.69265 2.7057 1.3353 4.707 3.1459 6.2267 5.6332 2.3161 3.7909 2.8708 8.7086 1.5364 13.62l-0.31437 1.1569-1.5842 0.46022c-3.7499 1.0893-7.4378 1.0594-10.734-0.086962-2.5062-0.87174-5.2333-2.7668-6.7527-4.6922zm5.2117 0.79854c1.5603 0.87876 4.2497 1.7404 5.8411 1.8716 1.4921 0.12293 3.5693-0.07623 4.7856-0.45889l0.83842-0.26381 0.27156-1.1389c0.58458-2.4516 0.2451-5.9219-0.79563-8.133-0.15931-0.33844-0.19732-0.19014-0.22092 0.86154-0.09151 4.0859-3.1659 7.2171-7.156 7.2883-5.0338 0.08981-8.4927-4.7077-6.8718-9.5313 0.34718-1.0333 0.58252-1.45 1.2835-2.2731 1.4834-1.7418 3.1124-2.5299 5.4529-2.6382 0.63544-0.029389 1.1082-0.097492 1.0506-0.15133-0.21482-0.19941-2.7321-0.81438-3.8551-0.94037-1.5743-0.17659-3.563-0.021744-4.7772 0.37198l-1.0032 0.3253-0.25479 1.1242c-0.5662 2.4982-0.365 5.122 0.58669 7.6513 1.0755 2.8584 2.6241 4.7955 4.8243 6.0346zm2.0178-4.0356c0.71509 0.38709 1.9942 0.45089 2.7829 0.13869 0.84739-0.33543 1.7107-1.2274 2.0135-2.0802 0.25329-0.71318 0.21561-2.0261-0.07582-2.6452-0.2091-0.44427-1.5098-1.7386-1.6261-1.6181-0.04359 0.04504-0.04954 0.31478-0.0132 0.59922 0.1888 1.4788-1.4289 2.7466-2.8152 2.2061-0.72695-0.28338-0.92491-0.49423-1.1918-1.2689l-0.22403-0.65031-0.27205 0.42424c-1.0379 1.6186-0.36767 3.9259 1.4217 4.8946z" fill="#f2cfe8"/>
</svg>
