<!-- Created with Inkscape (http://www.inkscape.org/) -->
<svg width="25mm" height="25mm" version="1.1" viewBox="0 0 25 25" xmlns="http://www.w3.org/2000/svg">
 <g transform="matrix(1.0833 -.51531 .51531 1.0833 -851.65 405.6)" fill="#c9ccbf">
  <path d="m788.02 15.194c-0.23048-0.02647-0.95784-0.10381-1.6164-0.17185-3.352-0.34633-5.807-1.1645-5.807-1.9353 0-0.59312 1.1555-1.1526 3.2776-1.5869l1.302-0.2665 0.27162-1.0667c0.27575-1.0827 1.0626-3.2807 1.4264-3.984 0.26591-0.51425 0.84828-0.8532 1.4668-0.85376 0.27538-2.463e-4 0.93909 0.16119 1.4749 0.35875 1.3226 0.48763 2.1585 0.48516 3.494-0.010313 1.6171-0.59997 2.4434-0.42574 2.9815 0.62873 0.44929 0.88034 1.3475 3.5045 1.5935 4.6558 0.0593 0.2775 0.15007 0.31948 0.99692 0.46114 1.1292 0.1889 2.5884 0.64075 3.1136 0.96409 0.21563 0.13278 0.42198 0.3813 0.46762 0.56323 0.20714 0.82532-1.5927 1.5174-5.2836 2.0316-1.2518 0.17441-8.1057 0.33303-9.1595 0.21198z"/>
  <path d="m787.58 21.728c-0.69033-0.13835-1.3393-0.49244-1.8592-1.0143-0.77449-0.77757-0.87135-1.1041-0.91456-3.0828-0.0212-0.97133 6e-3 -1.7659 0.0599-1.7658 0.0541 1.3e-4 0.87966 0.08291 1.8345 0.18396 2.3184 0.24535 7.3848 0.2455 9.6983 2.91e-4 0.95485-0.10121 1.7765-0.18412 1.8259-0.18425 0.0494-1.3e-4 0.0898 0.75581 0.0898 1.6799 0 1.2154-0.0492 1.7979-0.1779 2.1059-0.31854 0.76237-0.87625 1.336-1.6871 1.7351-0.64545 0.31776-0.91244 0.38098-1.6089 0.38098-0.73893 0-0.94983-0.05714-1.8327-0.49654-1.2652-0.6297-1.6073-0.63284-2.8723-0.02638-1.0567 0.50659-1.7696 0.64161-2.5559 0.48402zm8.5458-2.8267c0.1832-0.13678 0.33309-0.34482 0.33309-0.46231 0-0.83729-2.424-1.0607-3.1235-0.28782-0.27305 0.30172-0.14359 0.5565 0.43846 0.8629 0.57029 0.30021 1.8831 0.23727 2.3519-0.11277zm-7.1413 0.076c0.23538-0.06538 0.55864-0.25818 0.7184-0.42844l0.29043-0.30956-0.32946-0.28372c-0.32943-0.28369-1.0154-0.53299-1.4665-0.53299-0.45032 0-1.1368 0.24909-1.4654 0.5317l-0.32835 0.28243 0.23833 0.26716c0.48684 0.54568 1.4105 0.73234 2.3426 0.47342z"/>
 </g>
</svg>
