<?xml version="1.0" encoding="UTF-8" standalone="no"?>
<!-- Created with Inkscape (http://www.inkscape.org/) -->

<svg
   width="25mm"
   height="25mm"
   viewBox="0 0 25 25"
   version="1.1"
   id="svg1120"
   inkscape:version="1.2.2 (732a01da63, 2022-12-09)"
   sodipodi:docname="type-water.svg"
   xmlns:inkscape="http://www.inkscape.org/namespaces/inkscape"
   xmlns:sodipodi="http://sodipodi.sourceforge.net/DTD/sodipodi-0.dtd"
   xmlns="http://www.w3.org/2000/svg"
   xmlns:svg="http://www.w3.org/2000/svg">
  <sodipodi:namedview
     id="namedview1122"
     pagecolor="#505050"
     bordercolor="#eeeeee"
     borderopacity="1"
     inkscape:showpageshadow="0"
     inkscape:pageopacity="0"
     inkscape:pagecheckerboard="0"
     inkscape:deskcolor="#505050"
     inkscape:document-units="mm"
     showgrid="false"
     inkscape:zoom="3.1251122"
     inkscape:cx="77.277225"
     inkscape:cy="19.839287"
     inkscape:window-width="1920"
     inkscape:window-height="1057"
     inkscape:window-x="-8"
     inkscape:window-y="-8"
     inkscape:window-maximized="1"
     inkscape:current-layer="layer1" />
  <defs
     id="defs1117" />
  <g
     inkscape:label="Capa 1"
     inkscape:groupmode="layer"
     id="layer1">
    <g
       id="g74846-0-1"
       transform="matrix(1.0088949,0,0,1.0088949,-798.43983,-446.41564)"
       style="fill:#c0e4fb;fill-opacity:1">
      <path
         style="fill:#c0e4fb;fill-opacity:1;stroke:none;stroke-width:0.408623;stroke-opacity:1"
         d="m 805.89919,461.81279 c -2.03773,-0.44637 -3.48405,-1.98323 -3.89231,-4.13601 -0.324,-1.70844 0.34726,-3.58697 2.37668,-6.65126 1.10011,-1.6611 1.87443,-3.0967 2.34167,-4.34148 0.25018,-0.66655 0.52769,-0.83282 0.52769,-0.31617 0,0.43804 1.18932,2.76835 2.19192,4.29477 2.19157,3.33657 2.64467,4.3793 2.65168,6.10259 0.0137,3.38189 -2.91429,5.76672 -6.19733,5.04756 z m 2.32904,-0.99912 c 0.28827,-0.1096 0.38211,-0.23876 0.34715,-0.47787 -0.0442,-0.30254 -0.13415,-0.32838 -1.17251,-0.33715 -0.95211,-0.008 -1.23442,-0.074 -1.84027,-0.43014 -0.80611,-0.47383 -1.34621,-1.20792 -1.62122,-2.20348 -0.22199,-0.80372 -0.4781,-1.12361 -0.8005,-0.99989 -0.59738,0.22926 0.11663,2.37964 1.12494,3.38796 1.01777,1.01779 2.81189,1.49799 3.96241,1.06057 z"
         id="path74280-8-4-7-6-8" />
      <path
         style="fill:#c0e4fb;fill-opacity:1;stroke:none;stroke-width:0.105975;stroke-opacity:1"
         d="m 800.37849,466.46277 c -1.4871,-0.20357 -2.9162,-0.81189 -3.8947,-1.65788 -1.31348,-1.13554 -2.13361,-2.55262 -2.52731,-4.36688 -0.12825,-0.59095 -0.17271,-1.59642 -0.0976,-2.20633 0.18253,-1.48183 0.83386,-3.18123 1.99577,-5.2071 0.47511,-0.82842 0.61213,-1.04945 1.62402,-2.62001 0.76768,-1.19154 1.28057,-2.03094 1.77029,-2.89727 0.40789,-0.72154 1.13815,-2.22727 1.41457,-2.91671 0.13723,-0.34222 0.30082,-0.72722 0.36353,-0.85555 0.12861,-0.26315 0.3217,-0.48613 0.42093,-0.48613 0.0798,0 0.15174,0.18521 0.15174,0.39061 0,0.54479 1.1868,3.00777 2.51579,5.22104 0.2029,0.3379 0.36017,0.63718 0.34948,0.66505 -0.0108,0.0279 -0.24536,0.39891 -0.52144,0.82453 -1.92891,2.97354 -2.49913,4.19669 -2.6542,5.69338 -0.15846,1.52925 0.17698,2.9311 0.99828,4.17183 0.42419,0.64083 1.36916,1.46242 2.11273,1.83686 0.86732,0.43679 2.12089,0.67087 3.0522,0.56993 0.19252,-0.0209 0.35626,-0.0318 0.36391,-0.0244 0.0223,0.0215 -0.22173,0.43871 -0.4542,0.77646 -1.11317,1.61733 -2.74307,2.65622 -4.77088,3.0409 -0.37324,0.0708 -1.81684,0.10192 -2.21292,0.0477 z m 2.30938,-1.46969 c 0.36202,-0.0991 0.68886,-0.26459 0.789,-0.39946 0.0525,-0.0708 0.0763,-0.1649 0.0763,-0.30196 0,-0.2583 -0.0697,-0.42056 -0.21227,-0.4943 -0.15877,-0.0821 -0.67535,-0.13002 -1.41063,-0.13087 -0.71542,0 -1.37475,-0.0553 -1.71112,-0.14126 -0.60964,-0.15587 -1.5442,-0.72082 -2.08118,-1.25809 -0.65861,-0.65898 -1.06474,-1.39758 -1.4195,-2.58158 -0.32554,-1.08642 -0.68575,-1.51101 -1.13854,-1.34189 -0.65461,0.24445 -0.26516,2.17958 0.77675,3.85946 0.94205,1.51888 2.40184,2.48128 4.29025,2.8284 0.53788,0.0989 1.61342,0.0787 2.04092,-0.0384 z"
         id="path74809-4-5-1" />
    </g>
  </g>
</svg>
