<!-- Created with Inkscape (http://www.inkscape.org/) -->
<svg width="25mm" height="25mm" version="1.1" viewBox="0 0 25 25" xmlns="http://www.w3.org/2000/svg">
 <path d="m0.52436 23.745c0.091624-0.18997 1.8886-2.2109 3.9932-4.491 2.1046-2.2801 3.9137-4.3113 4.0203-4.5137 0.14501-0.27013-0.62239-0.79018-2.9089-1.9727l-3.1027-1.6046 3.5777-1.6681c1.9677-0.91747 6.9225-3.2493 11.011-5.1818 4.0881-1.9326 7.4121-3.3812 7.3867-3.2193-0.02501 0.16202-1.7769 2.1695-3.8922 4.4613-2.1153 2.2918-3.9332 4.3325-4.0398 4.5349-0.1444 0.26898 0.59299 0.77498 2.762 1.8968 1.6257 0.84077 2.918 1.6017 2.8718 1.691-0.063 0.12177-17.315 8.3562-21.249 10.142-0.34518 0.1567-0.52621 0.12527-0.42971-0.07461z" fill="#f1f0d2"/>
</svg>
