<!-- Created with Inkscape (http://www.inkscape.org/) -->
<svg width="25mm" height="25mm" version="1.1" viewBox="0 0 25 25" xmlns="http://www.w3.org/2000/svg">
 <path d="m10.795 24.1c-4.6957-0.96359-8.6981-5.2465-9.8158-10.504-0.43559-2.0488-0.16266-4.592 0.67277-6.2689 0.36567-0.73402 1.5429-2.0645 2.1744-2.4575l0.2871-0.17866-0.34515-0.33905c-0.18981-0.18648-0.49097-0.44319-0.6692-0.57047l-0.32406-0.23142 0.82216-0.31986c2.3248-0.90446 4.3513-0.99241 6.0936-0.26444l0.4498 0.18795-0.87514 0.49874c-1.6784 0.95645-2.8702 2.0868-3.4156 3.2394-0.11328 0.23944-0.23549 0.43528-0.27156 0.43521-0.036032-6.92e-5 -0.24168-0.39188-0.45697-0.87068-0.21529-0.4788-0.43696-0.87056-0.49265-0.87056-0.17003 0-0.80648 0.94098-1.217 1.7994-0.86196 1.8023-1.0396 3.8652-0.47574 5.5255 0.9657 2.8438 3.5578 5.1163 7.2896 6.3908 0.94516 0.32279 1.2554 0.37396 2.3107 0.38109 1.0375 7e-3 1.3052-0.03151 1.798-0.25865 0.73259-0.33767 1.0789-0.65652 1.3493-1.2423 0.27232-0.59001 0.27209-1.1522 0-1.7414-0.27493-0.59385-0.64901-0.93119-1.8695-1.686-1.9433-1.2017-3.6332-2.6897-4.5064-3.9679-1.8178-2.6608-1.0421-5.506 1.8943-6.9489 1.2615-0.61984 2.1987-0.84024 3.6278-0.85312 1.3935-0.012562 1.4558-0.086108 0.69233-0.81766-0.58232-0.55795-1.4291-0.87197-2.3889-0.88586l-0.65418-0.00941 0.40632-0.17698c1.7126-0.74598 3.8258-0.31323 5.3503 1.0956 0.36268 0.33521 0.68954 0.60948 0.7263 0.60948 0.03679 0 0.08202-0.43099 0.10063-0.95775l0.03376-0.95775 0.48567 0.72725c0.60729 0.90937 0.96954 1.8556 1.0535 2.7518 0.04696 0.50204 0.13178 0.75166 0.3077 0.9064 0.46009 0.40469 1.879 1.3038 2.58 1.6349l0.70264 0.33186-0.51031 1.4641c-0.28067 0.80524-0.52059 1.4704-0.53316 1.478-0.05345 0.03273-6.8309-1.9006-6.898-1.9677-0.04068-0.040684-0.09727-0.51799-0.12579-1.0607-0.04902-0.93262-0.06752-0.99062-0.33771-1.0585-0.48664-0.12214-1.5202 0.044969-2.026 0.32757-0.73312 0.40959-0.96805 0.79982-0.96349 1.6003 0.0032 0.58061 0.06373 0.7647 0.43407 1.3225 0.72631 1.0939 2.0743 2.0219 4.3102 2.9674 1.6684 0.70552 2.2853 1.062 3.0091 1.739 0.70433 0.65881 1.0628 1.2644 1.3026 2.2006 0.64645 2.5233-1.6763 5.7768-5.1592 7.2268-1.7739 0.73849-4.1543 0.98892-5.9322 0.62409zm8.9165-17.858c0.26631-0.14779 0.26431-0.15188-0.38963-0.80062-0.70737-0.70176-2.1546-1.545-2.4542-1.43-0.14564 0.055898-0.16795 0.17919-0.10959 0.60537 0.15532 1.1332 0.89182 1.771 2.0472 1.7728 0.35117 5.659e-4 0.75894-0.06582 0.90617-0.14753z" fill="#a1e7ed"/>
</svg>
