<!-- Created with Inkscape (http://www.inkscape.org/) -->
<svg width="25mm" height="25mm" version="1.1" viewBox="0 0 25 25" xmlns="http://www.w3.org/2000/svg">
 <path d="m1.0398 24.181c-0.27605-0.27605-0.50191-0.69428-0.50191-0.92945 0-0.70378 2.6571-15.187 2.8994-15.804 0.12314-0.31358 0.38924-0.65863 0.59139-0.76681 0.2021-0.10822 1.5261-0.19669 2.9422-0.19669h2.5747l-0.34905-0.66455c-0.4731-0.90086-0.4661-2.519 0.015055-3.4945 0.21302-0.43177 0.75726-1.0299 1.2094-1.3291 0.68329-0.45215 1.0519-0.54406 2.1822-0.54406 1.1753 0 1.4621 0.077909 2.1127 0.57417 1.4251 1.087 1.9381 2.947 1.2602 4.5694-0.16867 0.40376-0.30669 0.76888-0.30669 0.81136 0 0.042436 1.1102 0.077344 2.4672 0.077344 2.516 0 3.0961 0.13285 3.4475 0.78952 0.26272 0.49086 2.878 14.868 2.878 15.821 0 0.5569-0.13381 0.84622-0.53877 1.1648-0.52978 0.41675-0.72093 0.42378-11.46 0.42378h-10.922zm12.637-18.716c1.0282-0.80877 0.87009-2.3858-0.29989-2.9908-1.2175-0.6296-2.6146 0.27627-2.6146 1.6953 0 1.4546 1.7329 2.2249 2.9144 1.2955z" fill="#a2a7ab"/>
</svg>
