<?xml version="1.0" encoding="UTF-8" standalone="no"?>
<!-- Created with Inkscape (http://www.inkscape.org/) -->

<svg
   width="25mm"
   height="25mm"
   viewBox="0 0 25 25"
   version="1.1"
   id="svg1120"
   inkscape:version="1.2.2 (732a01da63, 2022-12-09)"
   sodipodi:docname="type-ghost.svg"
   xmlns:inkscape="http://www.inkscape.org/namespaces/inkscape"
   xmlns:sodipodi="http://sodipodi.sourceforge.net/DTD/sodipodi-0.dtd"
   xmlns="http://www.w3.org/2000/svg"
   xmlns:svg="http://www.w3.org/2000/svg">
  <sodipodi:namedview
     id="namedview1122"
     pagecolor="#505050"
     bordercolor="#eeeeee"
     borderopacity="1"
     inkscape:showpageshadow="0"
     inkscape:pageopacity="0"
     inkscape:pagecheckerboard="0"
     inkscape:deskcolor="#505050"
     inkscape:document-units="mm"
     showgrid="false"
     inkscape:zoom="2.2097881"
     inkscape:cx="-33.713641"
     inkscape:cy="19.911412"
     inkscape:window-width="1920"
     inkscape:window-height="1057"
     inkscape:window-x="-8"
     inkscape:window-y="-8"
     inkscape:window-maximized="1"
     inkscape:current-layer="layer1" />
  <defs
     id="defs1117" />
  <g
     inkscape:label="Capa 1"
     inkscape:groupmode="layer"
     id="layer1">
    <path
       style="fill:#cabbfb;fill-opacity:1;stroke:none;stroke-width:0.507896;stroke-opacity:1"
       d="M 22.982586,23.192311 C 21.85314,22.542497 20.501365,22.266699 18.849548,22.34906 15.527255,22.514711 14.862342,22.42663 13.016265,21.576473 10.936285,20.618585 9.3953569,20.377629 7.5747928,20.725573 6.0527969,21.016455 4.9764515,20.833115 2.357612,19.83691 l -1.80328322,-0.685952 0.2150883,-3.66318 C 0.96640788,12.130862 1.0183823,11.783009 1.390121,11.327126 2.1896012,10.346715 2.7453301,10.111788 4.2846592,10.103437 6.3379503,10.092256 6.4818704,9.9374395 6.7259159,7.4762895 6.9601205,5.1147928 7.4959559,3.9585995 8.9252641,2.7306727 10.305308,1.5450815 11.356455,1.180472 13.207304,1.2453353 c 1.342703,0.047348 1.648513,0.1270373 2.716669,0.7102013 1.337712,0.7303317 2.215231,1.7397777 2.816652,3.2400517 0.284589,0.7098955 0.373439,1.3927764 0.37072,2.8488762 -0.0034,1.7798002 0.02847,1.9426491 0.450206,2.3042425 0.348851,0.299125 0.73931,0.401172 1.688517,0.441322 1.569755,0.0664 2.355575,0.506955 2.883678,1.61671 0.378466,0.795316 0.383366,0.969043 0.170408,6.003719 -0.170379,4.028033 -0.271091,5.180706 -0.451709,5.166642 -0.127844,-0.0096 -0.51926,-0.183091 -0.869818,-0.384787 z M 10.727979,6.7873959 C 12.092078,5.7944139 12.472102,4.9367067 11.926272,4.0827558 10.980891,2.6037243 9.2836221,3.4608706 8.8941357,5.6140242 8.5916627,7.2862368 9.363893,7.7803469 10.727979,6.7873959 Z m 6.408788,0.4545295 C 17.434796,6.7375407 17.284714,5.2429855 16.858299,4.4701187 16.262469,3.3900472 15.096648,3.2565046 14.384644,4.1867405 13.76332,4.9984917 14.093916,5.930792 15.379177,6.9916066 c 0.83736,0.691083 1.445967,0.7777656 1.75759,0.2503188 z"
       id="path59017-1-1" />
  </g>
</svg>
