<!-- Created with Inkscape (http://www.inkscape.org/) -->
<svg width="25mm" height="25mm" version="1.1" viewBox="0 0 25 25" xmlns="http://www.w3.org/2000/svg">
 <path d="m22.983 23.192c-1.1294-0.64981-2.4812-0.92561-4.133-0.84325-3.3223 0.16565-3.9872 0.07757-5.8333-0.77259-2.08-0.95789-3.6209-1.1988-5.4415-0.8509-1.522 0.29088-2.5983 0.10754-5.2172-0.88866l-1.8033-0.68595 0.21509-3.6632c0.19699-3.3569 0.24897-3.7048 0.6207-4.1607 0.79948-0.98041 1.3552-1.2153 2.8945-1.2237 2.0533-0.011181 2.1972-0.166 2.4413-2.6271 0.2342-2.3615 0.77004-3.5177 2.1993-4.7456 1.38-1.1856 2.4312-1.5502 4.282-1.4853 1.3427 0.047348 1.6485 0.12704 2.7167 0.7102 1.3377 0.73033 2.2152 1.7398 2.8167 3.2401 0.28459 0.7099 0.37344 1.3928 0.37072 2.8489-0.0034 1.7798 0.02847 1.9426 0.45021 2.3042 0.34885 0.29912 0.73931 0.40117 1.6885 0.44132 1.5698 0.0664 2.3556 0.50696 2.8837 1.6167 0.37847 0.79532 0.38337 0.96904 0.17041 6.0037-0.17038 4.028-0.27109 5.1807-0.45171 5.1666-0.12784-0.0096-0.51926-0.18309-0.86982-0.38479zm-12.255-16.405c1.3641-0.99298 1.7441-1.8507 1.1983-2.7046-0.94538-1.479-2.6426-0.62189-3.0321 1.5313-0.30247 1.6722 0.46976 2.1663 1.8338 1.1734zm6.4088 0.45453c0.29803-0.50438 0.14795-1.9989-0.27847-2.7718-0.59583-1.0801-1.7617-1.2136-2.4737-0.28338-0.62132 0.81175-0.29073 1.7441 0.99453 2.8049 0.83736 0.69108 1.446 0.77777 1.7576 0.25032z" fill="#cabbfb"/>
</svg>
