<!-- Created with Inkscape (http://www.inkscape.org/) -->
<svg width="25mm" height="25mm" version="1.1" viewBox="0 0 25 25" xmlns="http://www.w3.org/2000/svg">
 <path d="m5.9355 23.668c-1.768-1.202-2.9703-2.4782-3.6569-3.8814-0.54559-1.1151-0.60489-1.4802-0.50908-3.1349 0.0945-1.6322 0.26585-2.2086 1.3335-4.4851 0.67378-1.4367 1.3251-2.9894 1.4474-3.4504l0.22225-0.83813 0.27746 0.69195c0.15262 0.38057 0.35547 1.2339 0.4508 1.8964l0.17336 1.2044 1.0325-1.3676c2.201-2.9152 3.636-6.3014 3.636-8.5798v-1.1587l0.89799 0.45855c1.9895 1.0159 4.4386 4.2794 5.3241 7.0943 0.44773 1.4234 0.66395 1.5153 1.1014 0.46829 0.25386-0.6076 0.35136-1.3364 0.27919-2.0874l-0.11087-1.1539 0.585 0.54838c0.8986 0.8424 2.6559 3.5988 3.3608 5.2716 0.54536 1.2942 0.63484 1.8521 0.64429 4.0173 0.01 2.3287-0.0421 2.6197-0.70742 3.9397-0.39513 0.78394-1.2572 1.9749-1.9157 2.6466-1.2289 1.2534-3.4743 2.9261-3.4697 2.5847 3e-3 -0.10511 0.16306-0.72009 0.3592-1.3666 0.41037-1.3527 0.45902-4.3156 0.0967-5.8887-0.39447-1.7128-1.6183-3.957-2.8694-5.2619-0.63473-0.66202-1.2557-1.2037-1.38-1.2037-0.12427 0-0.27014 0.72737-0.32417 1.6164-0.0674 1.1097-0.31572 2.0953-0.79208 3.1442l-0.6939 1.5278-0.27032-1.3539c-0.38381-1.922-0.69051-2.1094-1.1665-0.7124-0.21492 0.63078-0.82068 1.8705-1.3461 2.755-1.3187 2.2198-1.592 3.5224-1.1238 5.3577 0.20127 0.78899 0.34848 1.4492 0.32716 1.4672-0.0214 0.018-0.56732-0.32665-1.2133-0.76585z" fill="#f1d1c0"/>
</svg>
