<?xml version="1.0" encoding="UTF-8" standalone="no"?>
<!-- Created with Inkscape (http://www.inkscape.org/) -->

<svg
   width="25mm"
   height="25mm"
   viewBox="0 0 25 25"
   version="1.1"
   id="svg1120"
   inkscape:version="1.2.2 (732a01da63, 2022-12-09)"
   sodipodi:docname="type-dark.svg"
   xmlns:inkscape="http://www.inkscape.org/namespaces/inkscape"
   xmlns:sodipodi="http://sodipodi.sourceforge.net/DTD/sodipodi-0.dtd"
   xmlns="http://www.w3.org/2000/svg"
   xmlns:svg="http://www.w3.org/2000/svg">
  <sodipodi:namedview
     id="namedview1122"
     pagecolor="#505050"
     bordercolor="#eeeeee"
     borderopacity="1"
     inkscape:showpageshadow="0"
     inkscape:pageopacity="0"
     inkscape:pagecheckerboard="0"
     inkscape:deskcolor="#505050"
     inkscape:document-units="mm"
     showgrid="false"
     inkscape:zoom="4.4195761"
     inkscape:cx="47.629002"
     inkscape:cy="53.398786"
     inkscape:window-width="1920"
     inkscape:window-height="1057"
     inkscape:window-x="-8"
     inkscape:window-y="-8"
     inkscape:window-maximized="1"
     inkscape:current-layer="layer1" />
  <defs
     id="defs1117" />
  <g
     inkscape:label="Capa 1"
     inkscape:groupmode="layer"
     id="layer1">
    <g
       id="g51654-4-5"
       style="fill:#c9ccbf;fill-opacity:1"
       transform="matrix(1.0832686,-0.51531004,0.51531004,1.0832686,-851.65424,405.59652)">
      <path
         style="opacity:1;fill:#c9ccbf;fill-opacity:1;stroke:none;stroke-width:0.326276;stroke-opacity:1"
         d="m 788.01909,15.193555 c -0.23048,-0.02647 -0.95784,-0.103806 -1.61639,-0.171847 -3.35195,-0.346334 -5.80702,-1.164523 -5.80702,-1.935279 0,-0.593116 1.15551,-1.152587 3.27763,-1.586946 l 1.30204,-0.266505 0.27162,-1.066656 c 0.27575,-1.0827236 1.06265,-3.28068 1.42637,-3.984025 0.26591,-0.5142484 0.84828,-0.8532027 1.46685,-0.8537554 0.27538,-2.463e-4 0.93909,0.161191 1.47489,0.3587496 1.32255,0.4876329 2.15853,0.4851648 3.49401,-0.010313 1.61713,-0.5999694 2.44335,-0.4257408 2.98154,0.6287254 0.44929,0.8803381 1.34749,3.5045451 1.59353,4.6557754 0.0593,0.277498 0.15007,0.319475 0.99692,0.461144 1.12922,0.188904 2.58845,0.640746 3.11357,0.96409 0.21563,0.132782 0.42198,0.381299 0.46762,0.563231 0.20714,0.82532 -1.59274,1.517406 -5.28365,2.031632 -1.25179,0.174407 -8.10569,0.333028 -9.15953,0.211981 z"
         id="path51648-6-9" />
      <path
         style="opacity:1;fill:#c9ccbf;fill-opacity:1;stroke:none;stroke-width:0.326276;stroke-opacity:1"
         d="m 787.58134,21.727761 c -0.69033,-0.138349 -1.33932,-0.492442 -1.85915,-1.01433 -0.77449,-0.777574 -0.87135,-1.104086 -0.91456,-3.082828 -0.0212,-0.97133 0.006,-1.765947 0.0599,-1.765816 0.0541,1.3e-4 0.87966,0.08291 1.83454,0.183961 2.31844,0.245347 7.38478,0.245497 9.69833,2.91e-4 0.95485,-0.101206 1.77651,-0.184118 1.82591,-0.184249 0.0494,-1.3e-4 0.0898,0.755808 0.0898,1.679863 0,1.215436 -0.0492,1.797856 -0.1779,2.105878 -0.31854,0.76237 -0.87625,1.335974 -1.68709,1.735143 -0.64545,0.317762 -0.91244,0.380984 -1.60893,0.380984 -0.73893,0 -0.94983,-0.05714 -1.83267,-0.496537 -1.26515,-0.629698 -1.60726,-0.632841 -2.87226,-0.02638 -1.05669,0.506594 -1.76964,0.641608 -2.5559,0.484025 z m 8.5458,-2.826654 c 0.1832,-0.136778 0.33309,-0.344818 0.33309,-0.46231 0,-0.837289 -2.42404,-1.060656 -3.12346,-0.287815 -0.27305,0.301716 -0.14359,0.556496 0.43846,0.862896 0.57029,0.300213 1.88307,0.237266 2.35191,-0.112771 z m -7.14129,0.076 c 0.23538,-0.06538 0.55864,-0.258183 0.7184,-0.428439 l 0.29043,-0.309556 -0.32946,-0.283715 c -0.32943,-0.283693 -1.01539,-0.532991 -1.46653,-0.532991 -0.45032,0 -1.13683,0.249091 -1.46539,0.531703 l -0.32835,0.282426 0.23833,0.267155 c 0.48684,0.545681 1.4105,0.732343 2.34257,0.473417 z"
         id="path51650-5-0" />
    </g>
  </g>
</svg>
