<!-- Created with Inkscape (http://www.inkscape.org/) -->
<svg width="25mm" height="25mm" version="1.1" viewBox="0 0 25 25" xmlns="http://www.w3.org/2000/svg">
 <g transform="matrix(1.0089 0 0 1.0089 -798.44 -446.42)" fill="#c0e4fb">
  <path d="m805.9 461.81c-2.0377-0.44637-3.484-1.9832-3.8923-4.136-0.324-1.7084 0.34726-3.587 2.3767-6.6513 1.1001-1.6611 1.8744-3.0967 2.3417-4.3415 0.25018-0.66655 0.52769-0.83282 0.52769-0.31617 0 0.43804 1.1893 2.7684 2.1919 4.2948 2.1916 3.3366 2.6447 4.3793 2.6517 6.1026 0.0137 3.3819-2.9143 5.7667-6.1973 5.0476zm2.329-0.99912c0.28827-0.1096 0.38211-0.23876 0.34715-0.47787-0.0442-0.30254-0.13415-0.32838-1.1725-0.33715-0.95211-8e-3 -1.2344-0.074-1.8403-0.43014-0.80611-0.47383-1.3462-1.2079-1.6212-2.2035-0.22199-0.80372-0.4781-1.1236-0.8005-0.99989-0.59738 0.22926 0.11663 2.3796 1.1249 3.388 1.0178 1.0178 2.8119 1.498 3.9624 1.0606z"/>
  <path d="m800.38 466.46c-1.4871-0.20357-2.9162-0.81189-3.8947-1.6579-1.3135-1.1355-2.1336-2.5526-2.5273-4.3669-0.12825-0.59095-0.17271-1.5964-0.0976-2.2063 0.18253-1.4818 0.83386-3.1812 1.9958-5.2071 0.47511-0.82842 0.61213-1.0494 1.624-2.62 0.76768-1.1915 1.2806-2.0309 1.7703-2.8973 0.40789-0.72154 1.1382-2.2273 1.4146-2.9167 0.13723-0.34222 0.30082-0.72722 0.36353-0.85555 0.12861-0.26315 0.3217-0.48613 0.42093-0.48613 0.0798 0 0.15174 0.18521 0.15174 0.39061 0 0.54479 1.1868 3.0078 2.5158 5.221 0.2029 0.3379 0.36017 0.63718 0.34948 0.66505-0.0108 0.0279-0.24536 0.39891-0.52144 0.82453-1.9289 2.9735-2.4991 4.1967-2.6542 5.6934-0.15846 1.5292 0.17698 2.9311 0.99828 4.1718 0.42419 0.64083 1.3692 1.4624 2.1127 1.8369 0.86732 0.43679 2.1209 0.67087 3.0522 0.56993 0.19252-0.0209 0.35626-0.0318 0.36391-0.0244 0.0223 0.0215-0.22173 0.43871-0.4542 0.77646-1.1132 1.6173-2.7431 2.6562-4.7709 3.0409-0.37324 0.0708-1.8168 0.10192-2.2129 0.0477zm2.3094-1.4697c0.36202-0.0991 0.68886-0.26459 0.789-0.39946 0.0525-0.0708 0.0763-0.1649 0.0763-0.30196 0-0.2583-0.0697-0.42056-0.21227-0.4943-0.15877-0.0821-0.67535-0.13002-1.4106-0.13087-0.71542 0-1.3748-0.0553-1.7111-0.14126-0.60964-0.15587-1.5442-0.72082-2.0812-1.2581-0.65861-0.65898-1.0647-1.3976-1.4195-2.5816-0.32554-1.0864-0.68575-1.511-1.1385-1.3419-0.65461 0.24445-0.26516 2.1796 0.77675 3.8595 0.94205 1.5189 2.4018 2.4813 4.2902 2.8284 0.53788 0.0989 1.6134 0.0787 2.0409-0.0384z"/>
 </g>
</svg>
