<!-- Created with Inkscape (http://www.inkscape.org/) -->
<svg width="25mm" height="25mm" version="1.1" viewBox="0 0 25 25" xmlns="http://www.w3.org/2000/svg">
 <g transform="matrix(1.4097 0 0 1.4869 -1213.2 -334.36)" fill="#e8e3d3">
  <path d="m865.67 237.39c3e-3 -0.21442 0.23101-0.93587 0.42979-1.3578 0.15881-0.3371 0.31227-0.54833 0.59627-0.82073 0.2735-0.26231 0.41471-0.36335 0.69125-0.49463 0.13264-0.063 0.22058-0.1243 0.24969-0.17417 0.0246-0.0423 0.12186-0.30719 0.21592-0.58856 0.40397-1.2085 0.91308-1.9622 1.5358-2.2737 0.27207-0.13609 0.42585-0.17289 0.71898-0.17205 0.31361 7.9e-4 0.56087 0.0635 0.87411 0.2212l0.18515 0.0932 0.25847-0.36468c0.26464-0.37334 0.74549-0.88567 1.0483-1.117 0.21571-0.16475 0.304-0.18324 0.81634-0.17099 0.57724 0.0138 0.65103 0.0452 1.0488 0.44554 0.45236 0.45538 0.80031 1.0485 1.2041 2.0525l0.21132 0.52541 0.31531 0.0346c0.57118 0.0627 0.85206 0.19129 1.1756 0.53837 0.39619 0.42504 0.67533 1.1029 0.89427 2.1716 0.074 0.36119 0.19497 1.2534 0.19497 1.4379v0.0623h-6.3325c-6.0128 0-6.3325-2e-3 -6.3319-0.0484zm5.2605-0.90641c0.12928-0.0878 0.15481-0.17875 0.0862-0.30699-0.1215-0.2273-0.23355-0.26017-0.405-0.11885-0.12192 0.10051-0.12795 0.15809-0.0334 0.31941 0.11317 0.19308 0.19034 0.21641 0.35219 0.10643zm5.4331-0.0135c0.16391-0.094 0.24318-0.21475 0.21492-0.32743-0.0265-0.10588-0.20283-0.38667-0.26297-0.41887-0.10152-0.0543-0.23032-0.0294-0.36721 0.071-0.21694 0.15913-0.22866 0.25994-0.0608 0.52237 0.16579 0.25916 0.24591 0.2849 0.47604 0.15291zm-7.7282-0.12473c0.12925-0.0878 0.15478-0.17875 0.0862-0.307-0.12153-0.22729-0.23358-0.26017-0.40503-0.11884-0.12192 0.1005-0.12795 0.15809-0.0334 0.31941 0.11316 0.19307 0.19036 0.2164 0.35221 0.10643zm4.3155-2.3404c0.19005-0.10121 0.16465-0.3457-0.0435-0.41921-0.0614-0.0217-0.1846 0.0241-0.2317 0.0861-0.046 0.0606-0.0478 0.20383-3e-3 0.2598 0.0784 0.0983 0.18081 0.12528 0.27834 0.0733zm-2.7946-0.95028c0.13433-0.0913 0.15447-0.17536 0.0741-0.30947-0.13237-0.22093-0.2082-0.25014-0.37901-0.146-0.13671 0.0834-0.1677 0.17401-0.1015 0.29713 0.13359 0.24858 0.2226 0.28325 0.4064 0.15834zm4.2428-0.92423c0.16661-0.10158 0.17634-0.19288 0.0422-0.39554-0.10592-0.16006-0.21995-0.16371-0.38611-0.0124-0.0776 0.0707-0.0791 0.17047-5e-3 0.29591 0.10607 0.17819 0.1936 0.20633 0.3483 0.11199z"/>
  <path d="m860.6 237.13c-9e-3 -0.37899 0-0.49066 0.062-0.83137 0.24133-1.3049 0.41064-1.8065 0.84871-2.5148 0.43638-0.70542 0.84611-1.1101 1.3572-1.3403 0.20997-0.0946 0.46175-0.29973 0.94239-0.76782 0.57737-0.56231 0.69564-0.73078 0.84474-1.2033 0.10562-0.33474 0.3707-0.86376 0.56176-1.1211 0.3312-0.44602 0.76507-0.7613 1.1608-0.8435 0.31348-0.0651 0.74012 0.0248 1.079 0.22738 0.1973 0.11797 0.47953 0.39333 0.68299 0.66637 0.19103 0.25636 0.33428 0.36125 0.61931 0.45346 0.3588 0.11609 0.60968 0.28753 0.991 0.67724 0.2036 0.20807 0.5198 0.60049 0.4999 0.62039-4e-3 4e-3 -0.0636-5e-3 -0.13163-0.0207-0.068-0.0158-0.23566-0.023-0.37256-0.0161-0.46744 0.0236-0.83293 0.20734-1.2348 0.62066-0.39553 0.40677-0.70406 0.97539-0.9946 1.833-0.18708 0.55222-0.2277 0.61751-0.42788 0.68775-0.28863 0.10128-0.73906 0.45739-1.0122 0.80025-0.33846 0.42483-0.6698 1.2739-0.76285 1.9548l-0.0491 0.35948-4.6578 0.014zm2.4064-1.2822c0.0928-0.0603 0.11755-0.15104 0.0891-0.32604-0.0452-0.27763-0.12438-0.34273-0.35433-0.29121-0.2395 0.0537-0.28864 0.15424-0.22823 0.46726 0.034 0.17606 0.11292 0.23284 0.29128 0.20946 0.0763-0.01 0.16732-0.0368 0.20222-0.0595zm3.7691-1.8654c0.1016-0.0724 0.10483-0.17042 0.01-0.3097-0.0838-0.12327-0.15078-0.13109-0.27982-0.0327-0.10782 0.0822-0.11382 0.12897-0.0336 0.2613 0.0955 0.15754 0.16846 0.17705 0.30324 0.0811zm-1.1088-2.1721c0.0652-0.0589 0.1107-0.12496 0.1107-0.16075 0-0.0736-0.13475-0.20935-0.20775-0.20935-0.0658 0-0.26236 0.1885-0.26236 0.25163 0 0.0477 0.17364 0.21847 0.22211 0.21847 0.0146 0 0.0764-0.045 0.1373-0.1zm1.3845-1.6155c0.0656-0.0351 0.0693-0.12934 8e-3 -0.19733-0.0589-0.0651-0.12682-0.0643-0.18701 2e-3 -0.0442 0.0489-0.0445 0.0591-4e-3 0.13826 0.0464 0.0897 0.0939 0.10447 0.18285 0.0568z"/>
 </g>
</svg>
