<!-- Created with Inkscape (http://www.inkscape.org/) -->
<svg width="41mm" height="42mm" version="1.1" viewBox="0 0 41 42" xmlns="http://www.w3.org/2000/svg">
 <defs>
  <filter id="filter1628" x="-.013925" y="-.013682" width="1.0278" height="1.0274" color-interpolation-filters="sRGB">
   <feGaussianBlur stdDeviation="0.28588693"/>
  </filter>
 </defs>
 <path transform="matrix(.80078 0 0 .80078 -474.74 -191.83)" d="m625.35 290.72c0.0569-0.0921 0.20566-0.16732 0.33061-0.16732 0.12493 0 0.25224-0.0565 0.28293-0.1255 0.0308-0.069 0.65815-0.42199 1.3944-0.78437 3.6784-1.8106 6.9682-4.5899 8.8952-7.5149 0.71973-1.0925 2.2319-4.0909 2.2319-4.4255 0-0.0823 0.11446-0.37915 0.25439-0.65964 0.13996-0.28048 0.40185-1.1768 0.58202-1.9918 0.62378-2.8214 0.3799-6.921-0.58587-9.8481-0.34324-1.0404-1.6707-3.8192-2.0558-4.3036-1.53-1.9246-3.0476-3.1171-4.9714-3.9066-1.1094-0.45527-1.2995-0.48025-3.5975-0.47259-2.0512 7e-3 -2.7107 0.0778-4.2668 0.45965-1.7555 0.4307-2.1549 0.5248-3.9644 0.93418-1.1566 0.26166-1.8518 0.21931-2.912-0.17738-1.2989-0.48599-2.1617-1.4401-3.3226-3.6744-1.3261-2.5524-1.8311-2.935-2.8332-2.1468-0.81087 0.63783-1.018 1.2539-1.0076 2.9971 0.0112 1.826 0.41368 3.5029 1.4467 6.0237 0.81342 1.9849 1.0523 2.695 1.2831 3.8149 0.22059 1.0702 0.23724 2.6493 0.0348 3.3133-0.0813 0.26681-0.24637 0.82395-0.36687 1.2381-0.56853 1.954-2.2438 3.6897-4.3876 4.5456-1.3273 0.52996-1.4523 0.54811-3.7987 0.55137-2.1343 3e-3 -2.5571-0.044-3.5138-0.39087-3.3681-1.2209-5.6625-3.7024-6.442-6.9673-0.45015-1.8856-0.26422-5.6006 0.39767-7.9457 0.091-0.3221 0.21552-0.77388 0.27687-1.004 0.72123-2.7046 3.1898-7.144 5.2068-9.3641 1.7546-1.9312 2.9449-2.9563 4.911-4.2296 2.6214-1.6976 4.9373-2.6175 8.2826-3.29 0.8114-0.16311 1.3741-0.23336 3.5439-0.44247 1.2764-0.12298 5.2235 0.18437 6.9139 0.53841 2.1971 0.46015 2.4035 0.51382 3.5975 0.93495 1.2212 0.43076 3.5842 1.5482 4.6142 2.1821 2.1894 1.3473 4.9256 4.0014 6.4945 6.2994 1.8545 2.7163 3.4849 6.4727 4.0347 9.2955 0.0717 0.36811 0.26238 1.347 0.42374 2.1752 0.46456 2.3849 0.4332 7.6304-0.0601 10.04-0.5651 2.7602-1.1016 4.2871-2.4104 6.8603-0.68744 1.3516-1.9599 3.3327-2.6305 4.0954-2.8874 3.2841-5.2647 5.0132-9.4624 6.8824-0.7063 0.31453-2.3256 0.81861-2.6296 0.81861-0.17507 0-0.2718-0.0753-0.21493-0.16732z" fill="#fff" filter="url(#filter1628)" opacity=".28116"/>
</svg>
