<?xml version="1.0" encoding="UTF-8" standalone="no"?>
<!-- Created with Inkscape (http://www.inkscape.org/) -->

<svg
   width="68.18mm"
   height="61.299999mm"
   viewBox="0 0 68.18 61.299999"
   version="1.1"
   id="svg1120"
   inkscape:version="1.2.2 (732a01da63, 2022-12-09)"
   sodipodi:docname="fondoAura.svg"
   xmlns:inkscape="http://www.inkscape.org/namespaces/inkscape"
   xmlns:sodipodi="http://sodipodi.sourceforge.net/DTD/sodipodi-0.dtd"
   xmlns="http://www.w3.org/2000/svg"
   xmlns:svg="http://www.w3.org/2000/svg">
  <sodipodi:namedview
     id="namedview1122"
     pagecolor="#505050"
     bordercolor="#eeeeee"
     borderopacity="1"
     inkscape:showpageshadow="0"
     inkscape:pageopacity="0"
     inkscape:pagecheckerboard="0"
     inkscape:deskcolor="#505050"
     inkscape:document-units="mm"
     showgrid="false"
     inkscape:zoom="2.2097881"
     inkscape:cx="98.425729"
     inkscape:cy="116.75328"
     inkscape:window-width="1920"
     inkscape:window-height="1057"
     inkscape:window-x="-8"
     inkscape:window-y="-8"
     inkscape:window-maximized="1"
     inkscape:current-layer="layer1" />
  <defs
     id="defs1117" />
  <g
     inkscape:label="Capa 1"
     inkscape:groupmode="layer"
     id="layer1">
    <path
       sodipodi:type="star"
       style="mix-blend-mode:normal;fill:#4d4d4d;fill-opacity:0.63;stroke:none;stroke-width:1.3;stroke-opacity:0"
       id="path50273-9-2-82-6"
       inkscape:flatsided="false"
       sodipodi:sides="17"
       sodipodi:cx="1303.196"
       sodipodi:cy="644.41962"
       sodipodi:r1="124.98094"
       sodipodi:r2="62.044216"
       sodipodi:arg1="1.3089969"
       sodipodi:arg2="1.4937965"
       inkscape:rounded="0"
       inkscape:randomized="0"
       d="m 1335.5435,765.14193 -27.5748,-58.86194 -18.2195,62.39508 -4.4493,-64.84828 -39.5289,51.60003 19.277,-62.0765 -55.4996,33.83612 40.3999,-50.92096 -63.9749,11.50245 56.0665,-32.88824 -63.81,-12.38469 64.1611,-10.4138 -55.0271,-34.59921 63.5903,13.4671 -38.8126,-52.14092 54.4313,35.52918 -17.3562,-62.6407 37.9211,52.79286 6.4442,-64.68051 16.2894,62.92655 29.3744,-57.98486 -7.5423,64.56168 48.3373,-43.45803 -30.3553,57.47739 60.7721,-23.06195 -49.0688,42.63046 64.9992,0.44876 -61.1551,22.02606 60.4478,23.89887 -64.9822,-1.55309 47.7327,44.12131 -60.033,-24.92249 28.5709,58.38492 -46.9761,-44.92597 z"
       inkscape:transform-center-x="0.39416446"
       inkscape:transform-center-y="0.50628235"
       transform="matrix(-0.26494653,-0.06069087,0.06943687,-0.23929362,334.63316,264.14888)" />
  </g>
</svg>
