<!-- Created with Inkscape (http://www.inkscape.org/) -->
<svg width="43.481mm" height="43.481mm" version="1.1" viewBox="0 0 43.481 43.481" xmlns="http://www.w3.org/2000/svg">
 <g transform="matrix(.29985 0 0 .29985 -532.9 -181.71)">
  <circle transform="rotate(12.613)" cx="1953.3" cy="258.21" r="72.505" fill="#1a1a1a" stroke-width="2.8687"/>
  <path d="m1792.8 653.07c2.4142-6 9.0647-15.178 14.718-20.312 11.782-10.699 26.368-16.519 42.355-16.901 8.0691-0.19286 22.582 3.4883 29.634 7.5165 21.521 12.293 33.782 33.48 33.236 57.431l-0.066 2.8931-42.099-9.4205-2.5975-4.736c-3.3093-6.0338-7.3019-9.0684-13.89-10.557-6.2429-1.4108-13.605 0.48247-17.54 4.5107l-2.5398 2.5998-42.615-9.536z" fill="#a00" stroke-width=".87316"/>
  <path d="m1831.4 739.07c-12.991-4.1749-23.97-12.061-32.159-23.101-8.2698-11.149-12.51-24.797-12.117-39.006 0.065-2.3344 0.1171-4.5647 0.1167-4.9563l-4e-4 -0.71185 42.338 9.4768 0.725 2.8157c1.7967 6.9771 7.2354 12.749 13.731 14.574 4.7714 1.3404 8.3313 1.2596 12.745-0.28911 3.5298-1.2389 7.7919-4.4715 9.767-7.4079l0.7392-1.1 42.587 9.3662-0.4702 1.2414c-8.5321 22.446-27.202 37.691-50.414 41.167-8.8305 1.322-19.53 0.51936-27.586-2.0696z" fill="#fff" stroke-width=".30871"/>
  <circle transform="rotate(12.613)" cx="1953.5" cy="258.95" r="12.724" fill="#fff" stroke-width="4.2063"/>
 </g>
</svg>
